<?xml version="1.0" encoding="utf-8"?>
<!-- Generator: Adobe Illustrator 16.0.0, SVG Export Plug-In . SVG Version: 6.00 Build 0)  -->
<!DOCTYPE svg PUBLIC "-//W3C//DTD SVG 1.1//EN" "http://www.w3.org/Graphics/SVG/1.1/DTD/svg11.dtd">
<svg version="1.1" id="Livello_1" xmlns="http://www.w3.org/2000/svg" xmlns:xlink="http://www.w3.org/1999/xlink" x="0px" y="0px"
	 width="566.188px" height="185.718px" viewBox="0 0 566.188 185.718" enable-background="new 0 0 566.188 185.718"
	 xml:space="preserve">
<g>
	<path fill="#231F20" d="M566.188,160.655c0,13.84-11.218,25.063-25.058,25.063H24.298c-13.84,0-25.063-11.223-25.063-25.063V25.325
		c0-13.84,11.224-25.063,25.063-25.063h516.833c13.84,0,25.058,11.224,25.058,25.063V160.655z"/>
	<path fill="#FFFFFF" d="M97.153,31.979H50.971c-5.534,0-10.021,4.483-10.021,10.021v102.313c0,5.539,4.487,10.027,10.021,10.027
		h46.183c5.535,0,10.026-4.488,10.026-10.027V42C107.179,36.462,102.688,31.979,97.153,31.979z M74.062,146.981
		c-3.685,0-6.673-2.988-6.673-6.678c0-3.688,2.988-6.674,6.673-6.674c3.688,0,6.677,2.986,6.677,6.674
		C80.738,143.993,77.75,146.981,74.062,146.981z M99.306,130.378H48.819V54.909h50.487V130.378z"/>
	<g>
		<path fill="#FFFFFF" d="M145.001,50.213l-2.805,8.5h-3.611l9.183-27.029h4.213l9.221,27.029h-3.729l-2.888-8.5H145.001z
			 M153.863,47.489l-2.686-7.781c-0.563-1.768-0.965-3.367-1.366-4.933h-0.117c-0.362,1.565-0.804,3.25-1.326,4.891l-2.646,7.823
			H153.863z"/>
		<path fill="#FFFFFF" d="M164.813,39.305l3.81,10.868c0.643,1.804,1.165,3.41,1.565,5.013h0.121
			c0.442-1.603,1.001-3.209,1.643-5.013l3.772-10.868h3.69l-7.624,19.408h-3.368l-7.375-19.408H164.813z"/>
		<path fill="#FFFFFF" d="M195.652,54.065c0,1.682,0.082,3.322,0.284,4.648h-3.17l-0.322-2.444h-0.12
			c-1.039,1.526-3.167,2.886-5.934,2.886c-3.931,0-5.934-2.765-5.934-5.571c0-4.695,4.17-7.26,11.667-7.22v-0.402
			c0-1.602-0.441-4.534-4.407-4.486c-1.847,0-3.73,0.516-5.096,1.439l-0.804-2.369c1.606-1.001,3.973-1.682,6.417-1.682
			c5.979,0,7.419,4.051,7.419,7.942V54.065z M192.203,48.809c-3.852-0.08-8.217,0.601-8.217,4.373c0,2.324,1.521,3.369,3.285,3.369
			c2.57,0,4.21-1.607,4.773-3.248c0.121-0.365,0.159-0.765,0.159-1.127V48.809z"/>
		<path fill="#FFFFFF" d="M202.787,35.737c-1.32,0-2.204-1.041-2.204-2.285s0.923-2.246,2.286-2.246
			c1.365,0,2.247,1.002,2.247,2.246s-0.882,2.285-2.283,2.285H202.787z M201.106,58.713V39.305h3.528v19.408H201.106z"/>
		<path fill="#FFFFFF" d="M210.288,30.243h3.529v28.471h-3.529V30.243z"/>
		<path fill="#FFFFFF" d="M233.146,54.065c0,1.682,0.082,3.322,0.281,4.648h-3.173l-0.318-2.444h-0.119
			c-1.043,1.526-3.167,2.886-5.938,2.886c-3.926,0-5.935-2.765-5.935-5.571c0-4.695,4.172-7.26,11.672-7.22v-0.402
			c0-1.602-0.441-4.534-4.413-4.486c-1.843,0-3.73,0.516-5.09,1.439l-0.805-2.369c1.604-1.001,3.974-1.682,6.417-1.682
			c5.976,0,7.421,4.051,7.421,7.942V54.065z M229.697,48.809c-3.85-0.08-8.223,0.601-8.223,4.373c0,2.324,1.524,3.369,3.288,3.369
			c2.569,0,4.212-1.607,4.773-3.248c0.123-0.365,0.162-0.765,0.162-1.127V48.809z"/>
		<path fill="#FFFFFF" d="M238.595,30.243h3.529v12.15h0.083c1.242-2.164,3.486-3.529,6.613-3.529c4.815,0,8.185,4.011,8.185,9.865
			c0,6.979-4.413,10.426-8.743,10.426c-2.807,0-5.016-1.082-6.495-3.648h-0.084l-0.202,3.207h-3.042
			c0.12-1.326,0.156-3.287,0.156-5.01V30.243z M242.125,50.938c0,0.437,0.042,0.878,0.125,1.28c0.679,2.444,2.767,4.13,5.292,4.13
			c3.732,0,5.894-3.006,5.894-7.46c0-3.929-2.004-7.254-5.772-7.254c-2.405,0-4.656,1.683-5.335,4.327
			c-0.119,0.441-0.203,0.924-0.203,1.484V50.938z"/>
		<path fill="#FFFFFF" d="M261.213,30.243h3.526v28.471h-3.526V30.243z"/>
		<path fill="#FFFFFF" d="M272.399,49.613c0.08,4.772,3.085,6.735,6.617,6.735c2.531,0,4.092-0.441,5.375-0.963l0.64,2.486
			c-1.242,0.561-3.408,1.244-6.496,1.244c-5.934,0-9.544-3.969-9.544-9.784c0-5.896,3.488-10.508,9.146-10.508
			c6.331,0,7.977,5.577,7.977,9.141c0,0.725-0.04,1.286-0.12,1.688L272.399,49.613z M282.707,47.086
			c0.038-2.207-0.926-5.738-4.855-5.738c-3.606,0-5.13,3.289-5.413,5.738H282.707z"/>
		<path fill="#FFFFFF" d="M306.485,59.155c-5.214,0-9.306-3.85-9.306-9.984c0-6.497,4.294-10.307,9.626-10.307
			c5.571,0,9.342,4.051,9.342,9.945c0,7.221-5.014,10.346-9.624,10.346H306.485z M306.604,56.512c3.368,0,5.893-3.17,5.893-7.582
			c0-3.289-1.641-7.422-5.813-7.422c-4.132,0-5.934,3.852-5.934,7.543c0,4.252,2.404,7.461,5.813,7.461H306.604z"/>
		<path fill="#FFFFFF" d="M320.401,44.56c0-2.048-0.046-3.648-0.167-5.255h3.131l0.2,3.167h0.079
			c0.964-1.802,3.208-3.608,6.416-3.608c2.686,0,6.864,1.605,6.864,8.262v11.588h-3.537v-11.19c0-3.122-1.158-5.771-4.49-5.771
			c-2.287,0-4.089,1.645-4.731,3.608c-0.159,0.443-0.239,1.084-0.239,1.646v11.707h-3.525V44.56z"/>
		<path fill="#FFFFFF" d="M355.004,34.656v4.649h5.048v2.686h-5.048v10.469c0,2.404,0.683,3.77,2.644,3.77
			c0.965,0,1.528-0.08,2.05-0.24l0.156,2.686c-0.678,0.24-1.763,0.48-3.124,0.48c-1.649,0-2.972-0.561-3.815-1.479
			c-0.958-1.087-1.361-2.813-1.361-5.098V41.991h-3.005v-2.686h3.005v-3.568L355.004,34.656z"/>
		<path fill="#FFFFFF" d="M363.824,30.243h3.528v12.11h0.078c0.561-1.005,1.443-1.923,2.528-2.486
			c1.045-0.643,2.284-1.003,3.612-1.003c2.604,0,6.771,1.605,6.771,8.303v11.547h-3.523V47.568c0-3.167-1.165-5.778-4.495-5.778
			c-2.283,0-4.048,1.606-4.728,3.531c-0.202,0.482-0.243,1.003-0.243,1.686v11.707h-3.528V30.243z"/>
		<path fill="#FFFFFF" d="M387.884,49.613c0.079,4.772,3.085,6.735,6.615,6.735c2.525,0,4.092-0.441,5.378-0.963l0.639,2.486
			c-1.246,0.561-3.409,1.244-6.498,1.244c-5.934,0-9.545-3.969-9.545-9.784c0-5.896,3.49-10.508,9.146-10.508
			c6.335,0,7.982,5.577,7.982,9.141c0,0.725-0.042,1.286-0.121,1.688L387.884,49.613z M398.19,47.086
			c0.034-2.207-0.925-5.738-4.854-5.738c-3.607,0-5.138,3.289-5.415,5.738H398.19z"/>
		<path fill="#FFFFFF" d="M415.756,35.737c-1.328,0-2.211-1.041-2.211-2.285s0.921-2.246,2.288-2.246
			c1.362,0,2.244,1.002,2.244,2.246s-0.882,2.285-2.29,2.285H415.756z M414.065,58.713V39.305h3.53v19.408H414.065z"/>
		<path fill="#FFFFFF" d="M423.368,32.045c1.682-0.316,3.892-0.561,6.7-0.561c3.445,0,5.974,0.801,7.574,2.249
			c1.484,1.28,2.41,3.246,2.41,5.651c0,2.446-0.725,4.373-2.13,5.772c-1.841,1.968-4.851,2.97-8.259,2.97
			c-1.039,0-2.003-0.041-2.805-0.236v10.822h-3.491V32.045z M426.859,45.039c0.759,0.2,1.766,0.282,2.888,0.282
			c4.25,0,6.775-2.084,6.775-5.734c0-3.609-2.525-5.334-6.375-5.334c-1.522,0-2.686,0.16-3.288,0.283V45.039z"/>
		<path fill="#FFFFFF" d="M444.183,30.243h3.532v12.11h0.079c0.561-1.005,1.443-1.923,2.524-2.486
			c1.046-0.643,2.29-1.003,3.61-1.003c2.606,0,6.777,1.605,6.777,8.303v11.547h-3.527V47.568c0-3.167-1.164-5.778-4.494-5.778
			c-2.281,0-4.047,1.606-4.73,3.531c-0.202,0.482-0.239,1.003-0.239,1.686v11.707h-3.532V30.243z"/>
		<path fill="#FFFFFF" d="M474.139,59.155c-5.213,0-9.304-3.85-9.304-9.984c0-6.497,4.292-10.307,9.626-10.307
			c5.574,0,9.341,4.051,9.341,9.945c0,7.221-5.012,10.346-9.621,10.346H474.139z M474.262,56.512c3.363,0,5.895-3.17,5.895-7.582
			c0-3.289-1.645-7.422-5.817-7.422c-4.129,0-5.938,3.852-5.938,7.543c0,4.252,2.406,7.461,5.816,7.461H474.262z"/>
		<path fill="#FFFFFF" d="M488.053,44.56c0-2.048-0.04-3.648-0.159-5.255h3.127l0.2,3.167h0.083
			c0.963-1.802,3.208-3.608,6.413-3.608c2.688,0,6.854,1.605,6.854,8.262v11.588h-3.523v-11.19c0-3.122-1.165-5.771-4.494-5.771
			c-2.284,0-4.088,1.645-4.729,3.608c-0.163,0.443-0.246,1.084-0.246,1.646v11.707h-3.525V44.56z"/>
		<path fill="#FFFFFF" d="M512.112,49.613c0.08,4.772,3.089,6.735,6.619,6.735c2.524,0,4.089-0.441,5.371-0.963l0.643,2.486
			c-1.248,0.561-3.409,1.244-6.497,1.244c-5.935,0-9.546-3.969-9.546-9.784c0-5.896,3.49-10.508,9.144-10.508
			c6.336,0,7.982,5.577,7.982,9.141c0,0.725-0.04,1.286-0.12,1.688L512.112,49.613z M522.42,47.086
			c0.037-2.207-0.925-5.738-4.854-5.738c-3.611,0-5.132,3.289-5.415,5.738H522.42z"/>
	</g>
	<g>
		<path fill="#FFFFFF" d="M161.617,77.024l-23.778,69.991h10.888l7.101-21.49h23.02l7.299,21.49h11.191l-23.88-69.991H161.617z
			 M167.259,88.532c0.802,3.123,1.668,6.368,2.782,9.872l6.408,18.559h-18.238l6.319-18.678
			C165.494,95.255,166.407,91.985,167.259,88.532z"/>
		<path fill="#FFFFFF" d="M228.109,95.169c-7.213,0-12.993,2.783-16.837,8.076l-0.422-6.965h-9.686l0.058,0.891
			c0.284,4.338,0.406,9.111,0.406,15.965v53.949h10.586v-25.178c3.287,3.932,8.534,6.223,14.477,6.223
			c6.189,0,11.892-2.426,16.047-6.824c4.638-4.902,7.085-11.947,7.085-20.367c0-7.441-2.124-13.873-6.153-18.6
			C239.727,97.714,234.202,95.169,228.109,95.169z M225.471,103.935c9.438,0,13.665,8.744,13.665,17.408
			c0,11.178-5.391,18.121-14.068,18.121c-5.923,0-11.047-4.031-12.475-9.824c-0.244-0.902-0.378-2.09-0.378-3.432v-8.516
			c0-0.77,0.174-1.705,0.339-2.613c0.052-0.289,0.11-0.578,0.153-0.859C214.284,108.161,219.526,103.935,225.471,103.935z"/>
		<path fill="#FFFFFF" d="M282.638,95.169c-7.211,0-12.988,2.783-16.837,8.076l-0.42-6.965h-9.684l0.054,0.891
			c0.286,4.342,0.408,9.111,0.408,15.965v53.949h10.591v-25.178c3.285,3.932,8.529,6.223,14.47,6.223
			c6.193,0,11.893-2.426,16.054-6.824c4.633-4.902,7.08-11.947,7.08-20.367c0-7.441-2.127-13.873-6.154-18.6
			C294.257,97.714,288.732,95.169,282.638,95.169z M280.002,103.935c9.438,0,13.663,8.744,13.663,17.408
			c0,11.178-5.395,18.121-14.066,18.121c-5.922,0-11.05-4.031-12.477-9.824c-0.245-0.902-0.374-2.09-0.374-3.432v-8.516
			c0-0.775,0.169-1.715,0.337-2.619c0.053-0.287,0.105-0.572,0.154-0.854C268.815,108.161,274.058,103.935,280.002,103.935z"/>
		<path fill="#FFFFFF" d="M350.953,106.681c-9.884-3.828-13.051-6.838-13.051-12.4c0-4.683,3.722-9.403,12.038-9.403
			c6.859,0,11.251,2.385,12.432,3.12l0.898,0.554l2.987-8.838l-0.593-0.346c-1.772-1.04-6.826-3.461-15.42-3.461
			c-13.505,0-22.936,7.975-22.936,19.387c0,9.201,5.906,15.633,18.59,20.242c8.982,3.361,12.328,6.801,12.328,12.701
			c0,6.676-5.159,10.82-13.46,10.82c-5.405,0-10.97-1.578-15.264-4.328l-0.916-0.59l-2.843,9.041l0.521,0.348
			c3.996,2.668,11.522,4.602,17.896,4.602c18.199,0,24.653-11.1,24.653-20.602C368.816,117.731,363.641,111.687,350.953,106.681z"/>
		<path fill="#FFFFFF" d="M387.879,84.223l-10.387,3.26v8.797h-7.603v8.463h7.603v25.928c0,6.268,1.198,10.66,3.666,13.436
			c2.366,2.594,6.007,4.023,10.245,4.023c4.004,0,6.848-0.793,8.186-1.266l0.594-0.209l-0.506-8.48l-1.018,0.313
			c-1.338,0.41-2.714,0.57-4.925,0.57c-4.104,0-5.855-2.598-5.855-8.693v-25.621h12.772V96.28h-12.772V84.223z"/>
		<path fill="#FFFFFF" d="M426.896,95.169c-14.816,0-25.162,11.057-25.162,26.885c0,15.354,10.011,26.076,24.352,26.076h0.1
			c12.121,0,25.162-8.445,25.162-26.988c0-7.539-2.332-14.014-6.749-18.73C440.155,97.675,434.034,95.169,426.896,95.169z
			 M426.591,103.528c9.526,0,13.861,9.285,13.861,17.918c0,10.617-5.917,18.322-14.063,18.322h-0.102
			c-8.033,0-13.861-7.576-13.861-18.016C412.426,112.683,416.804,103.528,426.591,103.528z"/>
		<path fill="#FFFFFF" d="M483.781,95.659l-0.634-0.162c-0.933-0.232-1.694-0.328-2.635-0.328c-5.541,0-10.512,3.26-13.277,8.525
			l-0.312-7.414h-9.503l0.061,0.891c0.282,4.193,0.399,8.898,0.399,15.25l-0.097,34.594h10.59v-26.988
			c0-1.471,0.101-2.859,0.289-4.105c1.199-6.484,5.572-10.672,11.144-10.672c1.084,0,1.937,0.09,2.843,0.178l1.132,0.117V95.659z"/>
		<path fill="#FFFFFF" d="M507.591,95.067c-14.096,0-23.946,11.262-23.946,27.391c0,15.531,9.797,25.568,24.96,25.568
			c7.972,0,13.519-1.748,16.766-3.215l0.637-0.289l-2.033-7.889l-0.886,0.357c-2.885,1.172-6.72,2.371-13.268,2.371
			c-4.601,0-15.209-1.518-15.86-15.354l34.182,0.102l0.137-0.676c0.217-1.076,0.319-2.523,0.319-4.42
			C528.598,107.968,523.097,95.067,507.591,95.067z M506.883,103.124c3.228,0,5.844,0.996,7.775,2.965
			c3.046,3.1,3.581,7.666,3.646,9.855h-24.148C495.137,109.831,498.963,103.124,506.883,103.124z"/>
	</g>
</g>
</svg>
