<?xml version="1.0" encoding="utf-8"?>
<!-- Generator: Adobe Illustrator 16.0.0, SVG Export Plug-In . SVG Version: 6.00 Build 0)  -->
<!DOCTYPE svg PUBLIC "-//W3C//DTD SVG 1.1//EN" "http://www.w3.org/Graphics/SVG/1.1/DTD/svg11.dtd">
<svg version="1.1" id="Livello_1" xmlns="http://www.w3.org/2000/svg" xmlns:xlink="http://www.w3.org/1999/xlink" x="0px" y="0px"
	 width="568.551px" height="185.979px" viewBox="0 0 568.551 185.979" enable-background="new 0 0 568.551 185.979"
	 xml:space="preserve">
<path fill="#231F20" d="M568.551,160.843c0,13.881-11.25,25.137-25.127,25.137H25.134C11.255,185.979,0,174.724,0,160.843V25.134
	C0,11.255,11.255,0,25.134,0h518.29c13.877,0,25.127,11.255,25.127,25.134V160.843z"/>
<g id="PLAY_1_">
	<defs>
		<path id="SVGID_1_" d="M123.212,81.863L97.576,67.062c0,0-46.704-26.967-49.45-28.552c-2.745-1.583-5.48-0.625-5.48,2.689
			c0,5.518,0,57.578,0,57.578s0,56.264,0,58.748c0,2.483,1.957,3.555,4.34,2.178c2.385-1.379,50.59-29.211,50.59-29.211
			l25.636-14.802c0,0,21.75-12.557,24.641-14.226c2.891-1.67,2.613-3.96,0.174-5.272C145.587,94.876,123.212,81.863,123.212,81.863z
			"/>
	</defs>
	<clipPath id="SVGID_2_">
		<use xlink:href="#SVGID_1_"  overflow="visible"/>
	</clipPath>
	<linearGradient id="SVGID_3_" gradientUnits="userSpaceOnUse" x1="74.3994" y1="35.8052" x2="74.3994" y2="161.7495">
		<stop  offset="0" style="stop-color:#257DB0"/>
		<stop  offset="0.208" style="stop-color:#3C90B3"/>
		<stop  offset="0.7416" style="stop-color:#73BDB9"/>
		<stop  offset="1" style="stop-color:#89CEBC"/>
	</linearGradient>
	<polygon clip-path="url(#SVGID_2_)" fill="url(#SVGID_3_)" points="42.646,35.805 42.646,98.776 42.646,161.749 106.153,98.779 	
		"/>
	<linearGradient id="SVGID_4_" gradientUnits="userSpaceOnUse" x1="42.6455" y1="67.0625" x2="123.2119" y2="67.0625">
		<stop  offset="0" style="stop-color:#51BFAC"/>
		<stop  offset="1" style="stop-color:#DEE899"/>
	</linearGradient>
	<polygon clip-path="url(#SVGID_2_)" fill="url(#SVGID_4_)" points="123.212,81.863 97.576,67.062 42.646,35.346 42.646,35.805 
		106.153,98.779 	"/>
	<linearGradient id="SVGID_5_" gradientUnits="userSpaceOnUse" x1="82.9287" y1="98.7793" x2="82.9287" y2="162.208">
		<stop  offset="0" style="stop-color:#EB403D"/>
		<stop  offset="0.1937" style="stop-color:#D64252"/>
		<stop  offset="0.7369" style="stop-color:#9F4887"/>
		<stop  offset="1" style="stop-color:#894A9C"/>
	</linearGradient>
	<polygon clip-path="url(#SVGID_2_)" fill="url(#SVGID_5_)" points="42.646,161.749 42.646,162.208 97.576,130.491 123.212,115.689 
		106.153,98.779 	"/>
	<linearGradient id="SVGID_6_" gradientUnits="userSpaceOnUse" x1="129.3315" y1="81.8633" x2="129.3315" y2="115.6899">
		<stop  offset="0" style="stop-color:#F48779"/>
		<stop  offset="0.6121" style="stop-color:#FAB076"/>
		<stop  offset="1" style="stop-color:#FDC674"/>
	</linearGradient>
	<polygon clip-path="url(#SVGID_2_)" fill="url(#SVGID_6_)" points="123.212,81.863 106.153,98.779 123.212,115.689 152.509,98.776 
			"/>
</g>
<g>
	<path fill="#F9F9F9" d="M442.475,123.396c-2.387,0-4.564-0.439-6.534-1.317c-1.971-0.881-3.627-2.233-4.964-4.061h-0.4
		c0.267,2.139,0.4,4.165,0.4,6.081v15.071h-5.544V86.101h4.509l0.768,5.012h0.268c1.428-2.005,3.09-3.452,4.982-4.343
		c1.894-0.892,4.064-1.336,6.516-1.336c4.854,0,8.605,1.66,11.245,4.979c2.641,3.32,3.96,7.978,3.96,13.97
		c0,6.017-1.341,10.688-4.024,14.021C450.968,121.733,447.245,123.396,442.475,123.396z M441.671,90.146
		c-3.745,0-6.447,1.037-8.12,3.106c-1.669,2.072-2.53,5.37-2.574,9.893v1.236c0,5.146,0.859,8.829,2.574,11.047
		c1.718,2.217,4.469,3.323,8.255,3.323c3.165,0,5.644-1.279,7.438-3.841c1.793-2.563,2.689-6.095,2.689-10.596
		c0-4.568-0.896-8.072-2.689-10.511C447.449,91.364,444.925,90.146,441.671,90.146z"/>
	<path fill="#F9F9F9" d="M470.523,122.729h-5.547v-52h5.547V122.729z"/>
	<path fill="#F9F9F9" d="M502.419,122.729l-1.105-5.214h-0.266c-1.827,2.297-3.648,3.853-5.467,4.662
		c-1.814,0.814-4.081,1.219-6.799,1.219c-3.629,0-6.476-0.935-8.538-2.806c-2.061-1.871-3.093-4.531-3.093-7.987
		c0-7.394,5.916-11.271,17.746-11.629l6.219-0.201v-2.271c0-2.875-0.619-4.998-1.856-6.366c-1.235-1.372-3.216-2.056-5.93-2.056
		c-3.057,0-6.51,0.934-10.361,2.807l-1.708-4.244c1.807-0.98,3.783-1.749,5.935-2.306c2.15-0.557,4.305-0.835,6.47-0.835
		c4.364,0,7.598,0.968,9.706,2.907c2.104,1.938,3.158,5.046,3.158,9.324v24.996H502.419z M489.886,118.818
		c3.453,0,6.167-0.946,8.139-2.839c1.97-1.894,2.958-4.544,2.958-7.956v-3.307l-5.55,0.231c-4.412,0.159-7.591,0.842-9.543,2.058
		c-1.946,1.213-2.921,3.104-2.921,5.664c0,2.005,0.605,3.531,1.821,4.578C486.005,118.296,487.7,118.818,489.886,118.818z"/>
	<path fill="#F9F9F9" d="M509.749,86.101h5.944l8.023,20.888c1.757,4.77,2.853,8.211,3.275,10.328h0.268
		c0.292-1.14,0.897-3.08,1.819-5.835c0.928-2.753,3.951-11.211,9.076-25.381h5.95l-15.742,41.708
		c-1.56,4.122-3.381,7.046-5.467,8.774c-2.082,1.726-4.641,2.587-7.667,2.587c-1.694,0-3.364-0.188-5.015-0.565v-4.446
		c1.224,0.268,2.598,0.404,4.111,0.404c3.81,0,6.526-2.14,8.154-6.419l2.037-5.212L509.749,86.101z"/>
</g>
<g>
	<path fill="#F9F9F9" d="M339.709,89.504c1.762,1.457,5.438,4.521,5.438,10.344c0,5.666-3.219,8.354-6.437,10.877
		c-0.997,0.995-2.144,2.072-2.144,3.76c0,1.681,1.146,2.602,1.991,3.292l2.76,2.14c3.373,2.836,6.433,5.441,6.433,10.731
		c0,7.2-6.974,14.476-20.146,14.476c-11.109,0-16.471-5.284-16.471-10.956c0-2.758,1.371-6.663,5.898-9.347
		c4.746-2.911,11.186-3.291,14.631-3.527c-1.075-1.377-2.299-2.832-2.299-5.203c0-1.302,0.385-2.066,0.766-2.992
		c-0.844,0.079-1.688,0.154-2.453,0.154c-8.117,0-12.714-6.052-12.714-12.023c0-3.527,1.61-7.434,4.9-10.268
		c4.369-3.601,9.577-4.215,13.717-4.215h15.779l-4.904,2.758H339.709z M334.269,123.521c-0.612-0.078-0.999-0.078-1.761-0.078
		c-0.689,0-4.831,0.155-8.047,1.23c-1.684,0.609-6.589,2.448-6.589,7.889c0,5.437,5.288,9.35,13.487,9.35
		c7.351,0,11.261-3.529,11.261-8.276C342.62,129.719,340.091,127.659,334.269,123.521z M336.491,108.964
		c1.759-1.764,1.91-4.213,1.91-5.593c0-5.515-3.292-14.095-9.649-14.095c-1.994,0-4.137,0.993-5.362,2.529
		c-1.3,1.609-1.688,3.674-1.688,5.667c0,5.134,2.987,13.638,9.58,13.638C333.195,111.11,335.26,110.191,336.491,108.964z"/>
	<path fill="#F9F9F9" d="M291.479,122.297c-12.16,0-18.663-9.487-18.663-18.055c0-10.021,8.183-18.584,19.813-18.584
		c11.238,0,18.276,8.793,18.276,18.051C310.906,112.73,303.95,122.297,291.479,122.297z M301.038,116.1
		c1.839-2.449,2.297-5.508,2.297-8.493c0-6.73-3.21-19.58-12.697-19.58c-2.522,0-5.046,0.997-6.882,2.606
		c-2.981,2.672-3.521,6.039-3.521,9.333c0,7.567,3.749,20.03,13.005,20.03C296.223,119.996,299.281,118.547,301.038,116.1z"/>
	<path fill="#F9F9F9" d="M250.022,122.297c-12.161,0-18.665-9.487-18.665-18.055c0-10.021,8.188-18.584,19.813-18.584
		c11.243,0,18.278,8.793,18.278,18.051C269.449,112.73,262.492,122.297,250.022,122.297z M259.585,116.1
		c1.833-2.449,2.293-5.508,2.293-8.493c0-6.73-3.213-19.58-12.698-19.58c-2.523,0-5.046,0.997-6.883,2.606
		c-2.981,2.672-3.519,6.039-3.519,9.333c0,7.567,3.746,20.03,13.006,20.03C254.768,119.996,257.825,118.547,259.585,116.1z"/>
	<path fill="#F9F9F9" d="M225.515,121.097l-10.997,2.538c-4.462,0.693-8.459,1.304-12.686,1.304c-21.227,0-29.3-15.611-29.3-27.839
		c0-14.917,11.457-28.754,31.068-28.754c4.153,0,8.149,0.614,11.763,1.614c5.768,1.615,8.458,3.612,10.151,4.768l-6.385,6.074
		l-2.689,0.614l1.923-3.078c-2.613-2.535-7.386-7.223-16.456-7.223c-12.152,0-21.303,9.229-21.303,22.686
		c0,14.453,10.458,28.064,27.219,28.064c4.928,0,7.459-0.998,9.767-1.922v-12.379l-11.608,0.615l6.148-3.31h16.305l-1.998,1.92
		c-0.543,0.463-0.618,0.619-0.771,1.229c-0.08,0.694-0.153,2.926-0.153,3.694V121.097z"/>
	<path fill="#F9F9F9" d="M364.014,118.882c-2.54-0.23-3.069-0.689-3.069-3.693v-0.846V71.666c0.014-0.165,0.023-0.334,0.04-0.496
		c0.313-2.689,1.079-3.15,3.467-4.538H353.45l-5.771,2.77h5.88v0.034l-0.005-0.027v44.935v2.54c0,1.534-0.304,1.769-2.074,4.073
		h13.613l2.844-1.688C366.632,119.111,365.324,119.035,364.014,118.882z"/>
	<path fill="#F9F9F9" d="M395.304,119.589c-0.836,0.459-1.677,0.996-2.515,1.376c-2.526,1.145-5.119,1.452-7.414,1.452
		c-2.438,0-6.259-0.159-10.158-2.98c-5.418-3.821-7.786-10.389-7.786-16.114c0-11.837,9.623-17.64,17.488-17.64
		c2.751,0,5.58,0.687,7.87,2.139c3.814,2.515,4.808,5.8,5.34,7.558l-17.942,7.257l-5.881,0.459
		c1.906,9.696,8.472,15.344,15.731,15.344c3.894,0,6.72-1.372,9.314-2.667L395.304,119.589z M388.128,96.828
		c1.449-0.532,2.212-0.991,2.212-2.059c0-3.053-3.435-6.568-7.563-6.568c-3.056,0-8.781,2.368-8.781,10.614
		c0,1.299,0.154,2.673,0.232,4.051L388.128,96.828z"/>
	<g>
		<path fill="#F9F9F9" d="M402.677,86.205v5.039h-0.613v-5.039h-1.667v-0.523h3.945v0.523H402.677z"/>
		<path fill="#F9F9F9" d="M409.545,91.244v-5.086h-0.028l-1.553,5.086h-0.479l-1.566-5.086h-0.02v5.086h-0.555v-5.562h0.953
			l1.419,4.496h0.018l1.395-4.496h0.965v5.562H409.545z"/>
	</g>
</g>
<g>
	<path fill="#F9F9F9" d="M187.807,53.372h-3.821c0-0.526-0.364-2.014-1.088-4.467h-5.517c-0.749,2.413-1.123,3.9-1.123,4.467h-3.593
		c0-0.31,0.928-2.858,2.789-7.643c1.858-4.783,2.788-7.42,2.788-7.905h4.512c0,0.454,0.843,3.05,2.526,7.79
		C186.964,50.356,187.807,52.941,187.807,53.372z M182.29,46.625c-1.362-4.108-2.043-6.329-2.043-6.663h-0.19
		c0,0.311-0.705,2.531-2.113,6.663H182.29z"/>
	<path fill="#F9F9F9" d="M203.203,53.372h-2.949c0-0.326-1.095-2.05-3.285-5.172c-2.292-3.286-3.598-5.535-3.915-6.746h-0.192
		c0.2,1.743,0.299,3.32,0.299,4.729c0,1.966,0.055,4.364,0.167,7.189h-2.938c0.12-2.468,0.18-5.178,0.18-8.131
		c0-2.908-0.06-5.378-0.18-7.416h3.546c0,0.422,0.982,2.106,2.949,5.052c2.094,3.128,3.295,5.25,3.606,6.365h0.179
		c-0.19-1.776-0.287-3.368-0.287-4.778c0-2.157-0.057-4.369-0.167-6.638h2.985c-0.112,1.975-0.167,4.447-0.167,7.416
		C203.037,48.233,203.091,50.942,203.203,53.372z"/>
	<path fill="#F9F9F9" d="M220.51,45.061c0,2.261-0.725,4.235-2.174,5.924c-1.449,1.687-3.479,2.531-6.09,2.531
		c-1.178,0-2.802-0.049-4.872-0.144c0.104-2.404,0.156-5.115,0.156-8.131c0-2.898-0.051-5.37-0.156-7.416h2.091
		c0.34,0,0.85-0.011,1.527-0.037c0.676-0.023,1.119-0.035,1.324-0.035c2.876,0,4.959,0.716,6.252,2.148
		C219.862,41.334,220.51,43.054,220.51,45.061z M217.251,45.574c0-1.529-0.446-2.816-1.338-3.864
		c-0.892-1.045-2.253-1.568-4.083-1.568c-0.343,0-0.813,0.037-1.409,0.107c0.078,1.592,0.118,3.256,0.118,4.992
		c0,1.903,0.041,3.79,0.12,5.66c0.517,0.102,1.033,0.154,1.552,0.154c1.711,0,2.979-0.531,3.803-1.594
		C216.839,48.398,217.251,47.104,217.251,45.574z"/>
	<path fill="#F9F9F9" d="M236.469,53.372h-3.534c-0.926-2.818-1.632-4.558-2.126-5.219c-0.494-0.661-1.29-0.991-2.388-0.991
		c-0.461,0-0.905,0.005-1.326,0.012c0,2.046,0.037,4.112,0.109,6.198h-3.321c0.104-2.404,0.154-5.115,0.154-8.131
		c0-2.898-0.05-5.37-0.154-7.416h2.065c0.239,0,0.739-0.011,1.5-0.037c0.759-0.023,1.462-0.035,2.106-0.035
		c3.653,0,5.482,1.25,5.482,3.75c0,1.981-1.044,3.361-3.129,4.142v0.18c0.805,0.221,1.509,0.85,2.114,1.879
		C234.625,48.736,235.442,50.625,236.469,53.372z M231.991,42.386c0-1.583-1.019-2.375-3.059-2.375c-0.748,0-1.409,0.055-1.98,0.167
		c0.086,1.232,0.132,2.841,0.132,4.822c0.436,0.017,0.807,0.024,1.109,0.024C230.725,45.024,231.991,44.146,231.991,42.386z"/>
	<path fill="#F9F9F9" d="M253.585,45.312c0,2.444-0.749,4.471-2.244,6.077c-1.499,1.61-3.349,2.412-5.553,2.412
		c-2.103,0-3.86-0.737-5.278-2.215c-1.417-1.477-2.125-3.353-2.125-5.63c0-2.442,0.748-4.47,2.244-6.077
		c1.496-1.607,3.348-2.412,5.553-2.412c2.103,0,3.861,0.735,5.279,2.208C252.875,41.15,253.585,43.027,253.585,45.312z
		 M250.29,45.658c0-1.665-0.427-3.015-1.278-4.047c-0.852-1.035-1.902-1.553-3.153-1.553c-1.16,0-2.148,0.522-2.961,1.564
		c-0.813,1.044-1.217,2.361-1.217,3.953c0,1.654,0.427,3.002,1.284,4.041c0.855,1.04,1.905,1.56,3.146,1.56
		c1.163,0,2.15-0.522,2.962-1.57C249.884,48.558,250.29,47.242,250.29,45.658z"/>
	<path fill="#F9F9F9" d="M260.336,53.372h-3.379c0.103-2.468,0.154-5.178,0.154-8.131c0-2.908-0.051-5.378-0.154-7.416h3.379
		c-0.104,2.006-0.156,4.478-0.156,7.416C260.18,48.242,260.233,50.952,260.336,53.372z"/>
	<path fill="#F9F9F9" d="M277.644,45.061c0,2.261-0.725,4.235-2.173,5.924c-1.449,1.687-3.479,2.531-6.089,2.531
		c-1.178,0-2.802-0.049-4.872-0.144c0.103-2.404,0.155-5.115,0.155-8.131c0-2.898-0.052-5.37-0.155-7.416h2.09
		c0.342,0,0.85-0.011,1.527-0.037c0.677-0.023,1.118-0.035,1.325-0.035c2.875,0,4.958,0.716,6.252,2.148
		C276.998,41.334,277.644,43.054,277.644,45.061z M274.384,45.574c0-1.529-0.446-2.816-1.336-3.864
		c-0.893-1.045-2.256-1.568-4.084-1.568c-0.343,0-0.812,0.037-1.409,0.107c0.078,1.592,0.118,3.256,0.118,4.992
		c0,1.903,0.041,3.79,0.12,5.66c0.518,0.102,1.035,0.154,1.553,0.154c1.71,0,2.978-0.531,3.804-1.594
		C273.972,48.398,274.384,47.104,274.384,45.574z"/>
	<path fill="#F9F9F9" d="M300.604,53.372h-3.821c0-0.526-0.363-2.014-1.088-4.467h-5.517c-0.746,2.413-1.121,3.9-1.121,4.467h-3.595
		c0-0.31,0.93-2.858,2.788-7.643c1.859-4.783,2.788-7.42,2.788-7.905h4.515c0,0.454,0.842,3.05,2.527,7.79
		C299.762,50.356,300.604,52.941,300.604,53.372z M295.087,46.625c-1.36-4.108-2.043-6.329-2.043-6.663h-0.19
		c0,0.311-0.703,2.531-2.112,6.663H295.087z"/>
	<path fill="#F9F9F9" d="M314.534,41.896c0,1.902-0.709,3.308-2.122,4.216c-1.411,0.908-3.145,1.36-5.2,1.36
		c-0.373,0-0.639-0.007-0.8-0.024c0,1.499,0.044,3.471,0.132,5.924h-3.354c0.102-2.301,0.154-5.012,0.154-8.131
		c0-2.866-0.053-5.339-0.154-7.416h2.077c0.294,0,0.862-0.011,1.697-0.037c0.835-0.023,1.558-0.035,2.173-0.035
		c1.512,0,2.789,0.342,3.832,1.026C314.013,39.464,314.534,40.505,314.534,41.896z M311.453,42.553c0-1.703-1.132-2.555-3.392-2.555
		c-0.566,0-1.164,0.06-1.79,0.181c0.085,1.503,0.129,3.207,0.129,5.11c0.199,0.016,0.431,0.023,0.693,0.023
		C310.001,45.312,311.453,44.393,311.453,42.553z"/>
	<path fill="#F9F9F9" d="M328.854,41.896c0,1.902-0.704,3.308-2.119,4.216c-1.413,0.908-3.145,1.36-5.199,1.36
		c-0.376,0-0.64-0.007-0.801-0.024c0,1.499,0.043,3.471,0.133,5.924h-3.357c0.104-2.301,0.156-5.012,0.156-8.131
		c0-2.866-0.053-5.339-0.156-7.416h2.077c0.296,0,0.86-0.011,1.695-0.037c0.836-0.023,1.563-0.035,2.175-0.035
		c1.513,0,2.789,0.342,3.833,1.026C328.333,39.464,328.854,40.505,328.854,41.896z M325.774,42.553c0-1.703-1.131-2.555-3.393-2.555
		c-0.564,0-1.162,0.06-1.79,0.181c0.089,1.503,0.132,3.207,0.132,5.11c0.196,0.016,0.43,0.023,0.692,0.023
		C324.32,45.312,325.774,44.393,325.774,42.553z"/>
	<path fill="#F9F9F9" d="M352.268,45.312c0,2.444-0.746,4.471-2.244,6.077c-1.496,1.61-3.347,2.412-5.552,2.412
		c-2.101,0-3.861-0.737-5.276-2.215c-1.418-1.477-2.126-3.353-2.126-5.63c0-2.442,0.747-4.47,2.244-6.077
		c1.496-1.607,3.349-2.412,5.553-2.412c2.101,0,3.861,0.735,5.277,2.208C351.562,41.15,352.268,43.027,352.268,45.312z
		 M348.974,45.658c0-1.665-0.427-3.015-1.277-4.047c-0.853-1.035-1.904-1.553-3.151-1.553c-1.164,0-2.15,0.522-2.962,1.564
		c-0.812,1.044-1.219,2.361-1.219,3.953c0,1.654,0.429,3.002,1.284,4.041c0.855,1.04,1.903,1.56,3.145,1.56
		c1.164,0,2.15-0.522,2.963-1.57C348.566,48.558,348.974,47.242,348.974,45.658z"/>
	<path fill="#F9F9F9" d="M368.454,53.372h-2.948c0-0.326-1.094-2.05-3.286-5.172c-2.292-3.286-3.597-5.535-3.916-6.746h-0.19
		c0.199,1.743,0.3,3.32,0.3,4.729c0,1.966,0.055,4.364,0.166,7.189h-2.938c0.119-2.468,0.178-5.178,0.178-8.131
		c0-2.908-0.059-5.378-0.178-7.416h3.547c0,0.422,0.982,2.106,2.951,5.052c2.092,3.128,3.293,5.25,3.606,6.365h0.177
		c-0.191-1.776-0.286-3.368-0.286-4.778c0-2.157-0.055-4.369-0.168-6.638h2.985c-0.11,1.975-0.166,4.447-0.166,7.416
		C368.288,48.233,368.344,50.942,368.454,53.372z"/>
</g>
</svg>
