<?xml version="1.0" encoding="utf-8"?>
<!-- Generator: Adobe Illustrator 16.0.0, SVG Export Plug-In . SVG Version: 6.00 Build 0)  -->
<!DOCTYPE svg PUBLIC "-//W3C//DTD SVG 1.1//EN" "http://www.w3.org/Graphics/SVG/1.1/DTD/svg11.dtd">
<svg version="1.1" id="Livello_1" xmlns="http://www.w3.org/2000/svg" xmlns:xlink="http://www.w3.org/1999/xlink" x="0px" y="0px"
	 width="400px" height="400px" viewBox="0 0 400 400" enable-background="new 0 0 400 400" xml:space="preserve">
<g>
	<path fill="#009966" d="M199.993,3.116c-79.931,0-144.954,65.042-144.954,144.973c0,20.807,4.264,40.76,12.677,59.163
		c36.188,79.295,105.738,163.051,126.174,186.889c1.487,1.678,3.759,2.744,6.104,2.744c2.348,0,4.618-1.066,6.118-2.744
		c20.409-23.838,89.885-107.561,126.161-186.889c8.438-18.403,12.688-38.356,12.688-59.163
		C344.948,68.157,279.927,3.116,199.993,3.116L199.993,3.116z M199.993,223.398c-41.535,0-75.314-33.804-75.314-75.31
		c0-41.523,33.779-75.309,75.314-75.309c41.538,0,75.317,33.785,75.317,75.309C275.311,189.594,241.531,223.398,199.993,223.398
		L199.993,223.398z M199.993,223.398"/>
</g>
</svg>
