<?xml version="1.0" encoding="utf-8"?>
<!-- Generator: Adobe Illustrator 16.0.0, SVG Export Plug-In . SVG Version: 6.00 Build 0)  -->
<!DOCTYPE svg PUBLIC "-//W3C//DTD SVG 1.1//EN" "http://www.w3.org/Graphics/SVG/1.1/DTD/svg11.dtd">
<svg version="1.1" id="Livello_1" xmlns="http://www.w3.org/2000/svg" xmlns:xlink="http://www.w3.org/1999/xlink" x="0px" y="0px"
	 width="536.046px" height="800px" viewBox="0 0 536.046 800" enable-background="new 0 0 536.046 800" xml:space="preserve">
<path fill="#FFFFFF" d="M450.449,87.11c-50.35-50.407-112.455-75.966-183.562-75.966c-71.091,0-133.39,25.559-183.773,75.961
	C32.719,137.483,6.465,199.065,6.465,270.142v341.037c0,9.498,4.172,17.999,11.241,24.584c6.801,6.328,15.437,9.677,24.557,9.677
	c9.285,0,17.633-3.454,24.226-10.016c6.546-6.556,9.977-14.937,9.977-24.245V270.142c0-52.877,18.282-96.588,55.606-133.629
	c37.409-37.13,81.691-55.432,134.966-55.954c51.646,0.515,97.305,19.337,134.165,55.957c37.332,37.017,56.264,80.725,56.264,133.626
	v341.037c0,9.469,2.975,17.96,10.049,24.584c6.803,6.328,14.846,9.678,23.979,9.678c9.281,0,18.514-3.455,25.129-10.035
	c6.537-6.565,10.844-14.945,10.844-24.227V270.142C527.464,199.051,500.855,137.466,450.449,87.11z"/>
<path fill="#FFFFFF" d="M337.514,713.564c-10.417,0-19.222,3.618-26.472,10.827c-7.229,7.234-10.838,16.074-10.838,26.501
	c0,10.39,3.609,19.204,10.838,26.442c7.25,7.238,16.055,10.857,26.472,10.857c10.418,0,19.258-3.619,26.473-10.857
	c7.228-7.238,10.832-16.054,10.832-26.442c0-10.427-3.604-19.267-10.832-26.501C356.772,717.184,347.932,713.564,337.514,713.564z"
	/>
<path fill="#FFFFFF" d="M194.34,713.564c-10.412,0-19.238,3.618-26.466,10.827c-7.233,7.234-10.838,16.074-10.838,26.501
	c0,10.39,3.604,19.204,10.838,26.442c7.229,7.238,16.054,10.857,26.466,10.857c10.403,0,19.243-3.619,26.457-10.857
	c7.248-7.238,10.853-16.054,10.853-26.442c0-10.427-3.605-19.267-10.853-26.501C213.583,717.184,204.743,713.564,194.34,713.564z"/>
</svg>
