<?xml version="1.0" encoding="utf-8"?>
<!-- Generator: Adobe Illustrator 16.0.0, SVG Export Plug-In . SVG Version: 6.00 Build 0)  -->
<!DOCTYPE svg PUBLIC "-//W3C//DTD SVG 1.1//EN" "http://www.w3.org/Graphics/SVG/1.1/DTD/svg11.dtd">
<svg version="1.1" id="Livello_1" xmlns="http://www.w3.org/2000/svg" xmlns:xlink="http://www.w3.org/1999/xlink" x="0px" y="0px"
	 width="400px" height="400px" viewBox="0 0 400 400" enable-background="new 0 0 400 400" xml:space="preserve">
<g>
	<path fill="#009966" d="M42.545,117.521h14.99h15h14.996h14.986h15.004V12.548h-15.004H87.531H72.535h-15h-14.99H27.547H12.549
		v104.973h14.998H42.545z M27.547,27.546h14.998h14.99h15h14.996h14.986v74.977H87.531H72.535h-15h-14.99H27.547V27.546z"/>
	<polygon fill="#009966" points="27.547,252.482 12.549,252.482 12.549,267.48 27.547,267.48 42.545,267.48 42.545,237.492 
		27.547,237.492 	"/>
	<polygon fill="#009966" points="72.535,87.532 87.531,87.532 87.531,42.544 72.535,42.544 57.535,42.544 42.545,42.544 
		42.545,87.532 57.535,87.532 	"/>
	<polygon fill="#009966" points="57.535,177.5 72.535,177.5 87.531,177.5 87.531,147.517 72.535,147.517 72.535,132.519 
		57.535,132.519 42.545,132.519 42.545,147.517 57.535,147.517 	"/>
	<rect x="57.535" y="252.482" fill="#009966" width="15" height="14.998"/>
	<polygon fill="#009966" points="57.535,312.469 42.545,312.469 42.545,357.463 57.535,357.463 72.535,357.463 87.531,357.463 
		87.531,312.469 72.535,312.469 	"/>
	<polygon fill="#009966" points="87.531,192.504 72.535,192.504 72.535,207.496 57.535,207.496 57.535,177.5 42.545,177.5 
		42.545,207.496 27.547,207.496 27.547,162.515 42.545,162.515 42.545,147.517 27.547,147.517 27.547,132.519 12.549,132.519 
		12.549,237.492 27.547,237.492 27.547,222.494 42.545,222.494 42.545,237.492 57.535,237.492 57.535,222.494 72.535,222.494 
		87.531,222.494 87.531,207.496 102.518,207.496 117.521,207.496 117.521,192.504 102.518,192.504 102.518,177.5 87.531,177.5 	"/>
	<rect x="87.531" y="237.492" fill="#009966" width="14.986" height="14.99"/>
	<path fill="#009966" d="M87.531,282.473H72.535h-15h-14.99H27.547H12.549v104.979h14.998h14.998h14.99h15h14.996h14.986h15.004
		V282.473h-15.004H87.531z M102.518,372.453H87.531H72.535h-15h-14.99H27.547v-74.982h14.998h14.99h15h14.996h14.986V372.453z"/>
	<polygon fill="#009966" points="132.52,237.492 132.52,222.494 117.521,222.494 102.518,222.494 102.518,237.492 117.521,237.492 	
		"/>
	<polygon fill="#009966" points="147.518,252.482 132.52,252.482 117.521,252.482 102.518,252.482 102.518,267.48 117.521,267.48 
		132.52,267.48 132.52,312.469 147.518,312.469 147.518,297.471 162.514,297.471 162.514,312.469 177.5,312.469 192.506,312.469 
		192.506,297.471 177.5,297.471 177.5,282.473 162.514,282.473 162.514,267.48 147.518,267.48 	"/>
	<polygon fill="#009966" points="132.52,372.453 132.52,387.451 147.518,387.451 162.514,387.451 162.514,372.453 147.518,372.453 	
		"/>
	<polygon fill="#009966" points="162.514,42.544 177.5,42.544 177.5,27.546 162.514,27.546 162.514,12.548 147.518,12.548 
		132.52,12.548 132.52,42.544 147.518,42.544 	"/>
	<polygon fill="#009966" points="162.514,132.519 177.5,132.519 192.506,132.519 192.506,147.517 207.496,147.517 207.496,162.515 
		192.506,162.515 192.506,177.5 207.496,177.5 222.5,177.5 222.5,162.515 237.484,162.515 237.484,147.517 222.5,147.517 
		222.5,132.519 207.496,132.519 207.496,102.523 192.506,102.523 192.506,117.521 177.5,117.521 177.5,102.523 192.506,102.523 
		192.506,87.532 177.5,87.532 162.514,87.532 162.514,117.521 147.518,117.521 147.518,102.523 132.52,102.523 132.52,132.519 
		147.518,132.519 	"/>
	<rect x="162.514" y="252.482" fill="#009966" width="14.986" height="14.998"/>
	<polygon fill="#009966" points="162.514,327.467 162.514,342.465 147.518,342.465 147.518,327.467 132.52,327.467 132.52,357.463 
		147.518,357.463 162.514,357.463 177.5,357.463 177.5,327.467 	"/>
	<polygon fill="#009966" points="177.5,57.542 162.514,57.542 147.518,57.542 132.52,57.542 132.52,72.534 147.518,72.534 
		162.514,72.534 177.5,72.534 192.506,72.534 192.506,57.542 	"/>
	<rect x="192.506" y="72.534" fill="#009966" width="14.99" height="14.998"/>
	<polygon fill="#009966" points="192.506,192.504 192.506,207.496 177.5,207.496 177.5,192.504 162.514,192.504 147.518,192.504 
		147.518,177.5 162.514,177.5 177.5,177.5 177.5,162.515 162.514,162.515 162.514,147.517 147.518,147.517 147.518,162.515 
		132.52,162.515 132.52,132.519 117.521,132.519 102.518,132.519 87.531,132.519 87.531,147.517 102.518,147.517 117.521,147.517 
		117.521,162.515 102.518,162.515 102.518,177.5 117.521,177.5 132.52,177.5 132.52,207.496 147.518,207.496 147.518,252.482 
		162.514,252.482 162.514,222.494 177.5,222.494 177.5,252.482 192.506,252.482 192.506,222.494 207.496,222.494 207.496,192.504 	
		"/>
	<rect x="192.506" y="252.482" fill="#009966" width="14.99" height="14.998"/>
	<polygon fill="#009966" points="222.5,42.544 222.5,12.548 207.496,12.548 207.496,27.546 192.506,27.546 192.506,42.544 
		207.496,42.544 	"/>
	<rect x="207.496" y="87.532" fill="#009966" width="15.004" height="14.991"/>
	<rect x="207.496" y="222.494" fill="#009966" width="15.004" height="14.998"/>
	<rect x="222.5" y="102.523" fill="#009966" width="14.984" height="14.998"/>
	<polygon fill="#009966" points="222.5,357.463 207.496,357.463 192.506,357.463 177.5,357.463 177.5,387.451 192.506,387.451 
		192.506,372.453 207.496,372.453 222.5,372.453 237.484,372.453 252.484,372.453 252.484,357.463 237.484,357.463 237.484,342.465 
		222.5,342.465 	"/>
	<rect x="237.484" y="12.548" fill="#009966" width="15" height="14.998"/>
	<polygon fill="#009966" points="252.484,87.532 267.48,87.532 267.48,72.534 252.484,72.534 237.484,72.534 237.484,57.542 
		222.5,57.542 222.5,87.532 237.484,87.532 	"/>
	<rect x="252.484" y="27.546" fill="#009966" width="14.996" height="14.998"/>
	<polygon fill="#009966" points="267.48,387.451 282.479,387.451 297.471,387.451 297.471,372.453 282.479,372.453 282.479,357.463 
		267.48,357.463 	"/>
	<rect x="282.479" y="132.519" fill="#009966" width="14.992" height="14.999"/>
	<rect x="282.479" y="282.473" fill="#009966" width="14.992" height="14.998"/>
	<polygon fill="#009966" points="327.467,42.544 312.469,42.544 312.469,87.532 327.467,87.532 342.463,87.532 357.455,87.532 
		357.455,42.544 342.463,42.544 	"/>
	<rect x="327.467" y="132.519" fill="#009966" width="14.996" height="14.999"/>
	<path fill="#009966" d="M327.467,162.515h-14.998v-14.998h-14.998v44.987h14.998v14.992h-14.998v-14.992h-14.992H267.48v14.992
		h-14.996v-14.992h14.996v-29.989h14.998v-14.998H267.48v-44.994h-14.996v14.998h-15v29.996h15V177.5h-15v15.004H222.5v29.99h14.984
		h15v29.988h-15v-14.99H222.5v44.98h-15.004v44.994H222.5h14.984V267.48h15v59.986h-15v14.998h15h14.996h14.998v14.998h14.992
		h14.998h14.998v14.99h14.996v14.998h14.992h15h14.996v-14.998h-14.996h-15v-14.99h15v-14.998h14.996v-14.998h-14.996h-15h-14.992
		v14.998h-14.996v-29.996h14.996V267.48h-14.996v-14.998h-14.998v-14.99h-14.998v14.99h-14.992v-14.99h14.992v-14.998h14.998h14.998
		h14.996h14.992v-14.998h15v14.998h14.996V177.5h-14.996h-15v-14.985h-14.992H327.467z M297.471,267.48h14.998v44.988h-14.998
		h-14.992H267.48V267.48h14.998H297.471z M342.463,192.504h-14.996V177.5h14.996V192.504z"/>
	<rect x="342.463" y="252.482" fill="#009966" width="14.992" height="14.998"/>
	<polygon fill="#009966" points="357.455,132.519 357.455,162.515 372.455,162.515 372.455,147.517 387.451,147.517 
		387.451,132.519 372.455,132.519 	"/>
	<rect x="357.455" y="222.494" fill="#009966" width="15" height="29.988"/>
	<polygon fill="#009966" points="372.455,297.471 387.451,297.471 387.451,267.48 372.455,267.48 357.455,267.48 357.455,297.471 	
		"/>
	<path fill="#009966" d="M372.455,12.548h-15h-14.992h-14.996h-14.998h-14.998h-14.992v104.973h14.992h14.998h14.998h14.996h14.992
		h15h14.996V12.548H372.455z M372.455,102.523h-15h-14.992h-14.996h-14.998h-14.998V27.546h14.998h14.998h14.996h14.992h15V102.523z
		"/>
</g>
</svg>
