<?xml version="1.0" encoding="utf-8"?>
<!-- Generator: Adobe Illustrator 16.0.0, SVG Export Plug-In . SVG Version: 6.00 Build 0)  -->
<!DOCTYPE svg PUBLIC "-//W3C//DTD SVG 1.1//EN" "http://www.w3.org/Graphics/SVG/1.1/DTD/svg11.dtd">
<svg version="1.1" id="Livello_1" xmlns="http://www.w3.org/2000/svg" xmlns:xlink="http://www.w3.org/1999/xlink" x="0px" y="0px"
	 width="480.232px" height="476.744px" viewBox="0 0 480.232 476.744" enable-background="new 0 0 480.232 476.744"
	 xml:space="preserve">
<g>
	<g>
		<circle fill="#FFFFFF" cx="236.247" cy="239.433" r="224.39"/>
		<path fill="#009866" d="M236.248,468.822c-61.272,0-118.877-23.86-162.203-67.187S6.857,300.705,6.857,239.433
			c0-61.272,23.861-118.877,67.187-162.204c43.326-43.326,100.931-67.187,162.203-67.187s118.877,23.861,162.203,67.187
			s67.187,100.931,67.187,162.204c0,61.271-23.86,118.876-67.187,162.202S297.52,468.822,236.248,468.822z M236.248,20.042
			c-120.972,0-219.39,98.418-219.39,219.391c0,120.972,98.418,219.389,219.39,219.389c120.972,0,219.39-98.417,219.39-219.389
			C455.637,118.461,357.219,20.042,236.248,20.042z"/>
	</g>
	<g>
		<path fill="#005954" d="M159.721,241.583h7.286h7.289h7.289h7.283h7.292v-51.019h-7.292h-7.283h-7.289h-7.289h-7.286h-7.29h-7.29
			v51.019h7.29H159.721z M152.431,197.854h7.29h7.286h7.289h7.289h7.283v36.44h-7.283h-7.289h-7.289h-7.286h-7.29V197.854z"/>
		<polygon fill="#005954" points="152.431,307.179 145.142,307.179 145.142,314.468 152.431,314.468 159.721,314.468 
			159.721,299.892 152.431,299.892 		"/>
		<polygon fill="#005954" points="174.296,227.008 181.585,227.008 181.585,205.144 174.296,205.144 167.007,205.144 
			159.721,205.144 159.721,227.008 167.007,227.008 		"/>
		<polygon fill="#005954" points="167.007,270.734 174.296,270.734 181.585,270.734 181.585,256.162 174.296,256.162 
			174.296,248.873 167.007,248.873 159.721,248.873 159.721,256.162 167.007,256.162 		"/>
		<rect x="167.007" y="307.179" fill="#005954" width="7.289" height="7.289"/>
		<polygon fill="#005954" points="167.007,336.333 159.721,336.333 159.721,358.202 167.007,358.202 174.296,358.202 
			181.585,358.202 181.585,336.333 174.296,336.333 		"/>
		<polygon fill="#005954" points="181.585,278.027 174.296,278.027 174.296,285.314 167.007,285.314 167.007,270.734 
			159.721,270.734 159.721,285.314 152.431,285.314 152.431,263.452 159.721,263.452 159.721,256.162 152.431,256.162 
			152.431,248.873 145.142,248.873 145.142,299.892 152.431,299.892 152.431,292.603 159.721,292.603 159.721,299.892 
			167.007,299.892 167.007,292.603 174.296,292.603 181.585,292.603 181.585,285.314 188.868,285.314 196.161,285.314 
			196.161,278.027 188.868,278.027 188.868,270.734 181.585,270.734 		"/>
		<rect x="181.585" y="299.892" fill="#005954" width="7.283" height="7.287"/>
		<path fill="#005954" d="M181.585,321.753h-7.289h-7.289h-7.286h-7.29h-7.29v51.023h7.29h7.29h7.286h7.289h7.289h7.283h7.292
			v-51.023h-7.292H181.585z M188.868,365.487h-7.283h-7.289h-7.289h-7.286h-7.29v-36.443h7.29h7.286h7.289h7.289h7.283V365.487z"/>
		<polygon fill="#005954" points="203.45,299.892 203.45,292.603 196.161,292.603 188.868,292.603 188.868,299.892 196.161,299.892 
					"/>
		<polygon fill="#005954" points="210.739,307.179 203.45,307.179 196.161,307.179 188.868,307.179 188.868,314.468 
			196.161,314.468 203.45,314.468 203.45,336.333 210.739,336.333 210.739,329.043 218.029,329.043 218.029,336.333 
			225.312,336.333 232.604,336.333 232.604,329.043 225.312,329.043 225.312,321.753 218.029,321.753 218.029,314.468 
			210.739,314.468 		"/>
		<polygon fill="#005954" points="203.45,365.487 203.45,372.777 210.739,372.777 218.029,372.777 218.029,365.487 210.739,365.487 
					"/>
		<polygon fill="#005954" points="218.029,205.144 225.312,205.144 225.312,197.854 218.029,197.854 218.029,190.564 
			210.739,190.564 203.45,190.564 203.45,205.144 210.739,205.144 		"/>
		<polygon fill="#005954" points="218.029,248.873 225.312,248.873 232.604,248.873 232.604,256.162 239.89,256.162 239.89,263.452 
			232.604,263.452 232.604,270.734 239.89,270.734 247.183,270.734 247.183,263.452 254.465,263.452 254.465,256.162 
			247.183,256.162 247.183,248.873 239.89,248.873 239.89,234.294 232.604,234.294 232.604,241.583 225.312,241.583 
			225.312,234.294 232.604,234.294 232.604,227.008 225.312,227.008 218.029,227.008 218.029,241.583 210.739,241.583 
			210.739,234.294 203.45,234.294 203.45,248.873 210.739,248.873 		"/>
		<rect x="218.029" y="307.179" fill="#005954" width="7.283" height="7.289"/>
		<polygon fill="#005954" points="218.029,343.623 218.029,350.912 210.739,350.912 210.739,343.623 203.45,343.623 203.45,358.202 
			210.739,358.202 218.029,358.202 225.312,358.202 225.312,343.623 		"/>
		<polygon fill="#005954" points="225.312,212.432 218.029,212.432 210.739,212.432 203.45,212.432 203.45,219.719 210.739,219.719 
			218.029,219.719 225.312,219.719 232.604,219.719 232.604,212.432 		"/>
		<rect x="232.604" y="219.719" fill="#005954" width="7.286" height="7.29"/>
		<polygon fill="#005954" points="232.604,278.027 232.604,285.314 225.312,285.314 225.312,278.027 218.029,278.027 
			210.739,278.027 210.739,270.734 218.029,270.734 225.312,270.734 225.312,263.452 218.029,263.452 218.029,256.162 
			210.739,256.162 210.739,263.452 203.45,263.452 203.45,248.873 196.161,248.873 188.868,248.873 181.585,248.873 
			181.585,256.162 188.868,256.162 196.161,256.162 196.161,263.452 188.868,263.452 188.868,270.734 196.161,270.734 
			203.45,270.734 203.45,285.314 210.739,285.314 210.739,307.179 218.029,307.179 218.029,292.603 225.312,292.603 
			225.312,307.179 232.604,307.179 232.604,292.603 239.89,292.603 239.89,278.027 		"/>
		<rect x="232.604" y="307.179" fill="#005954" width="7.286" height="7.289"/>
		<polygon fill="#005954" points="247.183,205.144 247.183,190.564 239.89,190.564 239.89,197.854 232.604,197.854 232.604,205.144 
			239.89,205.144 		"/>
		<rect x="239.89" y="227.008" fill="#005954" width="7.293" height="7.286"/>
		<rect x="239.89" y="292.603" fill="#005954" width="7.293" height="7.289"/>
		<rect x="247.183" y="234.294" fill="#005954" width="7.282" height="7.289"/>
		<polygon fill="#005954" points="247.183,358.202 239.89,358.202 232.604,358.202 225.312,358.202 225.312,372.777 
			232.604,372.777 232.604,365.487 239.89,365.487 247.183,365.487 254.465,365.487 261.755,365.487 261.755,358.202 
			254.465,358.202 254.465,350.912 247.183,350.912 		"/>
		<rect x="254.465" y="190.564" fill="#005954" width="7.29" height="7.29"/>
		<polygon fill="#005954" points="261.755,227.008 269.044,227.008 269.044,219.719 261.755,219.719 254.465,219.719 
			254.465,212.432 247.183,212.432 247.183,227.008 254.465,227.008 		"/>
		<rect x="261.755" y="197.854" fill="#005954" width="7.289" height="7.29"/>
		<polygon fill="#005954" points="269.044,372.777 276.334,372.777 283.621,372.777 283.621,365.487 276.334,365.487 
			276.334,358.202 269.044,358.202 		"/>
		<rect x="276.334" y="248.873" fill="#005954" width="7.286" height="7.289"/>
		<rect x="276.334" y="321.753" fill="#005954" width="7.286" height="7.29"/>
		<polygon fill="#005954" points="298.199,205.144 290.909,205.144 290.909,227.008 298.199,227.008 305.488,227.008 
			312.774,227.008 312.774,205.144 305.488,205.144 		"/>
		<rect x="298.199" y="248.873" fill="#005954" width="7.289" height="7.289"/>
		<path fill="#005954" d="M298.199,263.452h-7.29v-7.29h-7.288v21.865h7.288v7.287h-7.288v-7.287h-7.286h-7.29v7.287h-7.289v-7.287
			h7.289v-14.575h7.29v-7.29h-7.29v-21.867h-7.289v7.289h-7.29v14.578h7.29v14.572h-7.29v7.293h-7.282v14.576h7.282h7.29v14.576
			h-7.29v-7.287h-7.282v21.861h-7.293v21.869h7.293h7.282v-29.154h7.29v29.154h-7.29v7.289h7.29h7.289h7.29v7.29h7.286h7.288h7.29
			v7.285h7.289v7.29h7.286h7.29h7.289v-7.29h-7.289h-7.29v-7.285h7.29v-7.29h7.289v-7.289h-7.289h-7.29h-7.286v7.289h-7.289v-14.578
			h7.289v-21.865h-7.289v-7.289h-7.29v-7.287h-7.288v7.287h-7.286v-7.287h7.286v-7.289h7.288h7.29h7.289h7.286v-7.289h7.29v7.289
			h7.289v-21.869h-7.289h-7.29v-7.282h-7.286H298.199z M283.621,314.468h7.288v21.865h-7.288h-7.286h-7.29v-21.865h7.29H283.621z
			 M305.488,278.027h-7.289v-7.293h7.289V278.027z"/>
		<rect x="305.488" y="307.179" fill="#005954" width="7.286" height="7.289"/>
		<polygon fill="#005954" points="312.774,248.873 312.774,263.452 320.064,263.452 320.064,256.162 327.353,256.162 
			327.353,248.873 320.064,248.873 		"/>
		<rect x="312.774" y="292.603" fill="#005954" width="7.29" height="14.576"/>
		<polygon fill="#005954" points="320.064,329.043 327.353,329.043 327.353,314.468 320.064,314.468 312.774,314.468 
			312.774,329.043 		"/>
		<path fill="#005954" d="M320.064,190.564h-7.29h-7.286h-7.289h-7.29h-7.288h-7.286v51.019h7.286h7.288h7.29h7.289h7.286h7.29
			h7.289v-51.019H320.064z M320.064,234.294h-7.29h-7.286h-7.289h-7.29h-7.288v-36.44h7.288h7.29h7.289h7.286h7.29V234.294z"/>
	</g>
	<g>
		<path fill="#005954" d="M221.625,126.186h-1.153v-7.594h-9.923v7.594h-1.154v-15.848h1.154v7.392h9.923v-7.392h1.153V126.186z"/>
		<path fill="#005954" d="M235.827,110.337v0.952h-8.344v6.406h6.943v0.93h-6.943v6.608h8.344v0.952h-9.498v-15.848H235.827z"/>
		<path fill="#005954" d="M251.496,126.186h-0.885c-0.104,0-0.189-0.028-0.258-0.084c-0.066-0.056-0.119-0.129-0.156-0.218
			l-1.871-4.604h-7.783l-1.859,4.604c-0.029,0.082-0.082,0.153-0.156,0.212c-0.076,0.06-0.164,0.09-0.27,0.09h-0.874l6.485-15.848
			h1.143L251.496,126.186z M240.89,120.429h7.1l-3.236-8.008c-0.053-0.127-0.105-0.271-0.156-0.431
			c-0.053-0.161-0.105-0.331-0.158-0.51c-0.051,0.179-0.104,0.349-0.156,0.51s-0.104,0.308-0.156,0.442L240.89,120.429z"/>
		<path fill="#005954" d="M255.482,119.018v7.168h-1.141v-15.848h4.043c1.828,0,3.195,0.353,4.098,1.059
			c0.904,0.706,1.355,1.742,1.355,3.108c0,0.605-0.104,1.158-0.313,1.658c-0.209,0.5-0.51,0.939-0.902,1.316
			s-0.863,0.687-1.416,0.93s-1.176,0.401-1.871,0.476c0.18,0.112,0.34,0.261,0.482,0.448l5.453,6.854h-0.996
			c-0.119,0-0.223-0.022-0.309-0.067c-0.086-0.044-0.17-0.119-0.252-0.224l-5.072-6.429c-0.129-0.164-0.264-0.28-0.41-0.347
			c-0.145-0.067-0.371-0.101-0.678-0.101H255.482z M255.482,118.167h2.756c0.701,0,1.33-0.084,1.887-0.252s1.027-0.409,1.412-0.723
			s0.678-0.69,0.879-1.131c0.201-0.44,0.303-0.937,0.303-1.489c0-1.127-0.369-1.964-1.109-2.509
			c-0.738-0.545-1.814-0.818-3.225-0.818h-2.902V118.167z"/>
		<path fill="#005954" d="M146.11,162.368c0.68,0,1.271-0.062,1.775-0.185s0.984-0.293,1.439-0.51v-2.945h-2.027
			c-0.194,0-0.347-0.054-0.459-0.163c-0.112-0.108-0.168-0.241-0.168-0.397v-1.703h5.387v6.552
			c-0.411,0.299-0.838,0.558-1.282,0.778s-0.918,0.401-1.422,0.543c-0.504,0.142-1.043,0.249-1.619,0.319
			c-0.575,0.071-1.194,0.106-1.859,0.106c-1.18,0-2.267-0.205-3.259-0.616c-0.993-0.41-1.852-0.981-2.576-1.713
			c-0.724-0.731-1.29-1.605-1.697-2.621c-0.407-1.016-0.61-2.125-0.61-3.327c0-1.217,0.198-2.333,0.594-3.349
			c0.396-1.016,0.958-1.889,1.686-2.621c0.728-0.731,1.611-1.299,2.649-1.702c1.038-0.403,2.202-0.605,3.494-0.605
			c1.322,0,2.466,0.196,3.433,0.588c0.967,0.392,1.786,0.902,2.458,1.529l-0.874,1.367c-0.172,0.276-0.399,0.415-0.683,0.415
			c-0.179,0-0.362-0.06-0.549-0.179c-0.239-0.142-0.483-0.284-0.733-0.426c-0.25-0.142-0.526-0.265-0.829-0.37
			c-0.302-0.104-0.642-0.19-1.019-0.258c-0.377-0.067-0.812-0.101-1.305-0.101c-0.799,0-1.521,0.134-2.167,0.403
			c-0.646,0.269-1.196,0.653-1.652,1.153c-0.456,0.5-0.806,1.102-1.053,1.803c-0.247,0.702-0.37,1.486-0.37,2.352
			c0,0.934,0.13,1.764,0.392,2.492c0.261,0.728,0.627,1.342,1.098,1.842c0.47,0.5,1.03,0.883,1.68,1.148
			C144.632,162.235,145.341,162.368,146.11,162.368z"/>
		<path fill="#005954" d="M158.262,164.585h-3.024V148.39h3.024V164.585z"/>
		<path fill="#005954" d="M177.437,156.488c0,1.188-0.198,2.287-0.593,3.298c-0.396,1.012-0.952,1.887-1.669,2.626
			s-1.579,1.316-2.587,1.73c-1.008,0.415-2.124,0.622-3.349,0.622s-2.343-0.207-3.354-0.622s-1.878-0.991-2.598-1.73
			c-0.721-0.739-1.279-1.614-1.674-2.626c-0.396-1.012-0.594-2.111-0.594-3.298c0-1.187,0.198-2.287,0.594-3.298
			c0.396-1.012,0.954-1.887,1.674-2.626c0.72-0.739,1.586-1.316,2.598-1.73c1.012-0.414,2.13-0.622,3.354-0.622
			s2.341,0.209,3.349,0.627c1.008,0.418,1.871,0.995,2.587,1.73s1.273,1.609,1.669,2.621
			C177.239,154.201,177.437,155.301,177.437,156.488z M174.346,156.488c0-0.888-0.118-1.686-0.353-2.391s-0.573-1.305-1.014-1.798
			c-0.44-0.493-0.976-0.87-1.607-1.131c-0.631-0.261-1.342-0.392-2.134-0.392s-1.505,0.131-2.139,0.392
			c-0.635,0.261-1.174,0.638-1.619,1.131c-0.444,0.493-0.786,1.092-1.024,1.798c-0.239,0.706-0.358,1.503-0.358,2.391
			c0,0.889,0.119,1.686,0.358,2.391c0.239,0.706,0.58,1.303,1.024,1.792c0.444,0.489,0.984,0.864,1.619,1.126
			c0.634,0.261,1.348,0.392,2.139,0.392s1.502-0.13,2.134-0.392c0.631-0.262,1.167-0.637,1.607-1.126
			c0.44-0.489,0.778-1.086,1.014-1.792S174.346,157.376,174.346,156.488z"/>
		<path fill="#005954" d="M177.594,148.39h2.43c0.261,0,0.474,0.063,0.639,0.19c0.164,0.127,0.287,0.292,0.37,0.493l3.808,9.878
			c0.127,0.321,0.249,0.674,0.364,1.059c0.116,0.385,0.226,0.79,0.331,1.215c0.171-0.859,0.384-1.617,0.638-2.274l3.797-9.878
			c0.067-0.171,0.187-0.328,0.358-0.47c0.172-0.142,0.385-0.213,0.639-0.213h2.43l-6.541,16.195h-2.722L177.594,148.39z"/>
		<path fill="#005954" d="M207.43,164.585h-2.329c-0.262,0-0.477-0.065-0.645-0.196c-0.168-0.131-0.289-0.293-0.363-0.487
			l-1.21-3.304h-6.709l-1.209,3.304c-0.061,0.172-0.178,0.329-0.354,0.47c-0.175,0.142-0.39,0.213-0.644,0.213h-2.341l6.361-16.195
			h3.08L207.43,164.585z M196.946,158.47h5.164l-1.972-5.387c-0.09-0.239-0.188-0.521-0.297-0.846s-0.215-0.677-0.319-1.058
			c-0.104,0.381-0.207,0.735-0.308,1.064s-0.2,0.616-0.297,0.862L196.946,158.47z"/>
		<path fill="#005954" d="M211.014,148.407c0.089,0.011,0.169,0.033,0.24,0.067s0.141,0.083,0.207,0.146
			c0.067,0.064,0.143,0.148,0.225,0.252l8.501,10.83c-0.03-0.261-0.051-0.517-0.063-0.767c-0.011-0.25-0.017-0.483-0.017-0.7v-9.845
			h2.654v16.195h-1.557c-0.239,0-0.437-0.037-0.594-0.112c-0.156-0.075-0.31-0.209-0.459-0.403l-8.467-10.786
			c0.022,0.239,0.039,0.476,0.05,0.711c0.012,0.235,0.018,0.45,0.018,0.644v9.946h-2.655V148.39h1.58
			C210.812,148.39,210.924,148.396,211.014,148.407z"/>
		<path fill="#005954" d="M227.948,148.407c0.089,0.011,0.169,0.033,0.24,0.067s0.141,0.083,0.207,0.146
			c0.067,0.064,0.143,0.148,0.225,0.252l8.501,10.83c-0.03-0.261-0.051-0.517-0.063-0.767c-0.011-0.25-0.017-0.483-0.017-0.7v-9.845
			h2.655v16.195h-1.557c-0.24,0-0.437-0.037-0.594-0.112c-0.156-0.075-0.31-0.209-0.459-0.403l-8.467-10.786
			c0.022,0.239,0.039,0.476,0.05,0.711c0.012,0.235,0.018,0.45,0.018,0.644v9.946h-2.655V148.39h1.58
			C227.746,148.39,227.858,148.396,227.948,148.407z"/>
		<path fill="#005954" d="M246.361,164.585h-3.023V148.39h3.023V164.585z"/>
		<path fill="#005954" d="M264.857,151.336c-0.082,0.164-0.178,0.28-0.287,0.347c-0.107,0.067-0.236,0.101-0.385,0.101
			c-0.15,0-0.318-0.058-0.504-0.173c-0.188-0.116-0.408-0.245-0.662-0.387c-0.254-0.142-0.551-0.271-0.891-0.386
			s-0.74-0.173-1.203-0.173c-0.418,0-0.783,0.05-1.092,0.151c-0.311,0.101-0.572,0.241-0.785,0.42s-0.371,0.394-0.475,0.644
			c-0.105,0.25-0.158,0.525-0.158,0.823c0,0.381,0.107,0.698,0.32,0.952s0.494,0.47,0.846,0.649c0.35,0.179,0.75,0.34,1.197,0.482
			c0.449,0.142,0.906,0.293,1.373,0.454s0.924,0.347,1.371,0.56c0.449,0.213,0.848,0.482,1.199,0.807
			c0.35,0.325,0.633,0.722,0.846,1.193c0.213,0.47,0.318,1.042,0.318,1.713c0,0.732-0.125,1.417-0.375,2.055
			c-0.25,0.639-0.615,1.195-1.098,1.669c-0.48,0.474-1.07,0.848-1.764,1.12c-0.695,0.272-1.49,0.409-2.385,0.409
			c-0.516,0-1.023-0.05-1.523-0.151c-0.502-0.101-0.98-0.244-1.439-0.431c-0.459-0.187-0.889-0.411-1.289-0.672
			c-0.398-0.261-0.756-0.552-1.068-0.874l0.873-1.445c0.082-0.104,0.182-0.192,0.297-0.263s0.244-0.106,0.387-0.106
			c0.186,0,0.389,0.077,0.604,0.229c0.217,0.153,0.473,0.323,0.768,0.51s0.643,0.356,1.043,0.51
			c0.398,0.153,0.879,0.229,1.438,0.229c0.859,0,1.523-0.204,1.994-0.61c0.471-0.407,0.705-0.991,0.705-1.753
			c0-0.426-0.105-0.773-0.318-1.042c-0.213-0.269-0.494-0.495-0.846-0.678s-0.75-0.338-1.199-0.465
			c-0.447-0.127-0.902-0.265-1.365-0.415c-0.463-0.149-0.918-0.328-1.367-0.538c-0.447-0.209-0.848-0.481-1.197-0.817
			c-0.352-0.336-0.633-0.756-0.846-1.26c-0.213-0.504-0.32-1.125-0.32-1.865c0-0.589,0.117-1.165,0.354-1.725
			c0.234-0.56,0.578-1.057,1.029-1.49c0.453-0.433,1.008-0.78,1.664-1.042s1.408-0.392,2.252-0.392c0.955,0,1.836,0.149,2.643,0.448
			s1.494,0.717,2.061,1.254L264.857,151.336z"/>
		<path fill="#005954" d="M279.326,160.766c0.166,0,0.307,0.063,0.426,0.19l1.188,1.288c-0.656,0.814-1.465,1.438-2.424,1.871
			c-0.961,0.433-2.111,0.649-3.455,0.649c-1.203,0-2.283-0.205-3.242-0.616c-0.961-0.41-1.779-0.981-2.459-1.713
			c-0.68-0.731-1.201-1.605-1.563-2.621c-0.363-1.016-0.543-2.125-0.543-3.327c0-1.217,0.201-2.331,0.604-3.343
			c0.404-1.012,0.971-1.883,1.703-2.615c0.732-0.731,1.607-1.301,2.627-1.708c1.02-0.407,2.145-0.61,3.377-0.61
			c1.201,0,2.252,0.192,3.152,0.577c0.9,0.384,1.67,0.894,2.313,1.528l-1.008,1.4c-0.061,0.089-0.137,0.168-0.23,0.235
			c-0.092,0.067-0.221,0.101-0.385,0.101c-0.172,0-0.348-0.067-0.527-0.202s-0.406-0.28-0.684-0.437
			c-0.275-0.157-0.625-0.302-1.047-0.437s-0.957-0.202-1.607-0.202c-0.762,0-1.461,0.133-2.1,0.397
			c-0.639,0.265-1.188,0.644-1.646,1.137c-0.459,0.493-0.818,1.092-1.074,1.798c-0.258,0.706-0.387,1.499-0.387,2.38
			c0,0.911,0.129,1.721,0.387,2.431c0.256,0.709,0.605,1.307,1.047,1.792c0.439,0.485,0.959,0.856,1.557,1.114
			c0.598,0.257,1.238,0.386,1.926,0.386c0.41,0,0.783-0.022,1.115-0.067c0.332-0.045,0.639-0.116,0.918-0.213
			s0.545-0.222,0.795-0.375c0.25-0.153,0.498-0.341,0.744-0.565c0.076-0.067,0.154-0.121,0.236-0.163
			C279.14,160.787,279.23,160.766,279.326,160.766z"/>
		<path fill="#005954" d="M297.447,164.585h-2.328c-0.262,0-0.477-0.065-0.645-0.196c-0.168-0.131-0.289-0.293-0.363-0.487
			l-1.211-3.304h-6.709l-1.209,3.304c-0.061,0.172-0.178,0.329-0.354,0.47c-0.174,0.142-0.389,0.213-0.643,0.213h-2.342
			l6.361-16.195h3.08L297.447,164.585z M286.964,158.47h5.164l-1.973-5.387c-0.09-0.239-0.188-0.521-0.297-0.846
			c-0.107-0.325-0.215-0.677-0.318-1.058c-0.105,0.381-0.207,0.735-0.309,1.064c-0.1,0.329-0.199,0.616-0.297,0.862L286.964,158.47z
			"/>
		<path fill="#005954" d="M301.031,148.407c0.09,0.011,0.17,0.033,0.24,0.067c0.072,0.034,0.141,0.083,0.207,0.146
			c0.068,0.064,0.143,0.148,0.225,0.252l8.502,10.83c-0.031-0.261-0.051-0.517-0.063-0.767s-0.018-0.483-0.018-0.7v-9.845h2.654
			v16.195h-1.557c-0.238,0-0.436-0.037-0.594-0.112c-0.156-0.075-0.309-0.209-0.459-0.403l-8.467-10.786
			c0.023,0.239,0.039,0.476,0.051,0.711c0.012,0.235,0.018,0.45,0.018,0.644v9.946h-2.656V148.39h1.58
			C300.83,148.39,300.941,148.396,301.031,148.407z"/>
		<path fill="#005954" d="M327.621,148.39v1.109c0,0.344-0.098,0.657-0.291,0.941l-8.311,11.737h8.398v2.408h-12.309v-1.187
			c0-0.149,0.027-0.293,0.078-0.431c0.053-0.138,0.121-0.267,0.203-0.387l8.332-11.793h-8.086v-2.397H327.621z"/>
		<path fill="#005954" d="M333.263,164.585h-3.023V148.39h3.023V164.585z"/>
	</g>
	<g>
		<path fill="#005954" d="M209.321,397.696c-0.024,0.029-0.051,0.044-0.081,0.044c-0.044,0-0.111-0.051-0.201-0.15
			c-0.091-0.101-0.224-0.209-0.397-0.327s-0.398-0.227-0.673-0.327s-0.617-0.15-1.028-0.15c-0.422,0-0.795,0.064-1.121,0.194
			c-0.326,0.13-0.599,0.303-0.819,0.519c-0.221,0.215-0.389,0.465-0.504,0.75c-0.115,0.283-0.172,0.58-0.172,0.889
			c0,0.396,0.077,0.728,0.231,0.992s0.356,0.488,0.606,0.669c0.25,0.182,0.537,0.332,0.86,0.452s0.651,0.235,0.984,0.346
			c0.334,0.109,0.662,0.227,0.985,0.349s0.61,0.278,0.86,0.467c0.249,0.188,0.451,0.421,0.606,0.698
			c0.154,0.277,0.231,0.623,0.231,1.04c0,0.421-0.071,0.815-0.214,1.18c-0.142,0.365-0.348,0.684-0.617,0.956
			c-0.27,0.271-0.601,0.486-0.992,0.643s-0.838,0.235-1.337,0.235c-0.349,0-0.66-0.03-0.934-0.092s-0.525-0.149-0.753-0.265
			s-0.438-0.255-0.628-0.419s-0.375-0.352-0.551-0.563l0.029-0.029c0.015-0.015,0.027-0.026,0.037-0.033s0.027-0.011,0.052-0.011
			c0.029,0,0.072,0.031,0.128,0.092s0.133,0.14,0.231,0.235c0.098,0.095,0.216,0.197,0.353,0.305c0.137,0.108,0.304,0.21,0.5,0.306
			c0.196,0.096,0.42,0.174,0.673,0.234c0.252,0.062,0.54,0.092,0.864,0.092c0.475,0,0.897-0.076,1.268-0.228
			c0.369-0.151,0.684-0.356,0.94-0.614c0.257-0.257,0.453-0.557,0.588-0.9c0.135-0.342,0.202-0.707,0.202-1.095
			c0-0.323-0.05-0.603-0.15-0.838s-0.236-0.437-0.408-0.606c-0.172-0.169-0.371-0.313-0.599-0.434
			c-0.229-0.119-0.472-0.228-0.731-0.323s-0.524-0.184-0.794-0.265c-0.27-0.08-0.534-0.17-0.794-0.268
			c-0.26-0.099-0.503-0.21-0.731-0.335c-0.228-0.125-0.427-0.276-0.599-0.456c-0.172-0.179-0.308-0.392-0.408-0.639
			c-0.101-0.248-0.15-0.541-0.15-0.879c0-0.328,0.061-0.643,0.184-0.944s0.301-0.567,0.537-0.798
			c0.235-0.23,0.525-0.414,0.871-0.551c0.346-0.137,0.741-0.206,1.188-0.206c0.5,0,0.941,0.081,1.326,0.243
			c0.385,0.161,0.746,0.418,1.084,0.771L209.321,397.696z"/>
		<path fill="#005954" d="M219.861,405.656c0.02,0,0.037,0.008,0.052,0.021l0.065,0.06c-0.216,0.21-0.447,0.403-0.694,0.577
			s-0.519,0.323-0.813,0.447c-0.294,0.125-0.617,0.224-0.97,0.295c-0.353,0.07-0.742,0.106-1.169,0.106
			c-0.69,0-1.328-0.122-1.911-0.364s-1.088-0.592-1.514-1.047c-0.427-0.456-0.759-1.008-0.996-1.658
			c-0.237-0.648-0.356-1.38-0.356-2.193c0-0.783,0.119-1.5,0.356-2.146s0.573-1.201,1.007-1.664s0.953-0.821,1.559-1.074
			c0.604-0.252,1.272-0.378,2.003-0.378c0.372,0,0.708,0.024,1.007,0.073s0.578,0.124,0.838,0.225s0.506,0.227,0.738,0.379
			c0.233,0.151,0.47,0.328,0.71,0.529l-0.022,0.036c-0.02,0.024-0.042,0.036-0.066,0.036c-0.039,0-0.092-0.027-0.158-0.084
			c-0.065-0.057-0.154-0.126-0.265-0.209c-0.109-0.084-0.246-0.174-0.407-0.272c-0.162-0.098-0.355-0.188-0.581-0.272
			c-0.226-0.082-0.486-0.152-0.782-0.209c-0.297-0.057-0.634-0.084-1.011-0.084c-0.696,0-1.334,0.119-1.915,0.355
			c-0.58,0.238-1.08,0.579-1.499,1.022s-0.746,0.981-0.981,1.613s-0.353,1.341-0.353,2.124c0,0.799,0.116,1.514,0.349,2.146
			c0.232,0.632,0.555,1.168,0.967,1.609c0.411,0.441,0.897,0.777,1.459,1.011c0.561,0.233,1.17,0.349,1.826,0.349
			c0.417,0,0.789-0.029,1.117-0.088s0.629-0.145,0.9-0.258c0.272-0.111,0.524-0.25,0.757-0.414c0.233-0.164,0.465-0.352,0.695-0.563
			C219.827,405.667,219.847,405.656,219.861,405.656z"/>
		<path fill="#005954" d="M229.872,407.044h-0.133c-0.044,0-0.073-0.023-0.088-0.073l-1.434-3.439h-5.424l-1.434,3.439
			c-0.015,0.05-0.049,0.073-0.103,0.073h-0.117l4.292-10.289h0.146L229.872,407.044z M222.853,403.384h5.307l-2.535-6.086
			c-0.025-0.053-0.046-0.104-0.063-0.15c-0.018-0.047-0.036-0.097-0.056-0.15c-0.02,0.054-0.038,0.104-0.055,0.15
			c-0.018,0.047-0.038,0.098-0.063,0.15L222.853,403.384z"/>
		<path fill="#005954" d="M231.944,396.814l7.284,9.915c-0.004-0.024-0.008-0.05-0.008-0.077s0-0.053,0-0.077v-9.819h0.148v10.289
			h-0.045c-0.029,0-0.057-0.017-0.08-0.051l-7.322-9.959c0.005,0.029,0.008,0.06,0.008,0.092c0,0.031,0,0.06,0,0.084v9.834h-0.147
			v-10.289h0.06C231.886,396.755,231.92,396.775,231.944,396.814z"/>
		<path fill="#005954" d="M251.785,404.685c0.016,0.025,0.029,0.049,0.041,0.07s0.025,0.051,0.039,0.084
			c0.016-0.033,0.029-0.063,0.041-0.084s0.025-0.045,0.041-0.07l4.527-7.871c0.025-0.039,0.059-0.059,0.104-0.059h0.059v10.289
			h-0.146v-9.834c0-0.024,0-0.049,0-0.073s0.002-0.049,0.006-0.073l-4.506,7.85c-0.033,0.049-0.068,0.073-0.102,0.073h-0.045
			c-0.033,0-0.068-0.024-0.102-0.073l-4.654-7.843c0.006,0.024,0.008,0.048,0.008,0.069c0,0.023,0,0.046,0,0.07v9.834h-0.146
			v-10.289h0.059c0.045,0,0.078,0.02,0.104,0.059L251.785,404.685z"/>
		<path fill="#005954" d="M266.175,396.755v0.161h-5.836v4.821h4.955v0.162h-4.955v4.983h5.852l-0.016,0.161h-6.012v-10.289H266.175
			z"/>
		<path fill="#005954" d="M269.74,406.541c0-0.188,0.064-0.352,0.193-0.488c0.131-0.137,0.289-0.204,0.479-0.204
			s0.352,0.067,0.488,0.204s0.205,0.3,0.205,0.488c0,0.189-0.068,0.349-0.205,0.479c-0.137,0.129-0.299,0.193-0.488,0.193
			s-0.348-0.064-0.479-0.193C269.804,406.889,269.74,406.73,269.74,406.541z M270.601,392.345v6.006
			c0,0.309-0.002,0.597-0.006,0.866s-0.006,0.544-0.01,0.824s-0.012,0.581-0.021,0.903s-0.02,0.689-0.025,1.102h-0.168
			c-0.016-0.412-0.025-0.779-0.033-1.102c-0.006-0.322-0.012-0.623-0.016-0.903c-0.002-0.28-0.006-0.555-0.01-0.824
			s-0.006-0.558-0.006-0.866v-6.006H270.601z"/>
	</g>
	<g>
		<path fill="#009866" d="M95.571,114.978c-0.216,0.253-0.487,0.394-0.813,0.419c-0.326,0.027-0.616-0.068-0.87-0.284l-9.752-8.296
			c-0.253-0.215-0.393-0.486-0.419-0.813s0.068-0.616,0.284-0.87s0.489-0.396,0.82-0.428c0.331-0.032,0.624,0.06,0.877,0.276
			l8.826,7.508l3.81-4.479c0.206-0.242,0.478-0.377,0.814-0.404c0.336-0.027,0.628,0.065,0.876,0.276s0.385,0.484,0.413,0.821
			s-0.063,0.626-0.269,0.869L95.571,114.978z"/>
		<path fill="#009866" d="M101.915,104.229c-2.102-0.066-3.91-0.856-5.425-2.37c-1.514-1.514-2.305-3.321-2.372-5.424
			c-0.067-2.102,0.631-3.885,2.094-5.348c1.462-1.463,3.252-2.153,5.37-2.072c2.117,0.082,3.923,0.869,5.417,2.362
			c1.494,1.494,2.267,3.299,2.318,5.416c0.051,0.972-0.1,1.926-0.452,2.862c-0.353,0.936-0.877,1.752-1.572,2.448
			C105.809,103.587,104.017,104.295,101.915,104.229z M98.239,100.11c1.034,1.033,2.264,1.578,3.691,1.633
			c1.427,0.056,2.624-0.399,3.59-1.366c0.967-0.967,1.414-2.167,1.342-3.599c-0.072-1.432-0.614-2.654-1.627-3.667
			c-1.013-1.013-2.233-1.557-3.66-1.633c-1.427-0.077-2.629,0.374-3.606,1.351s-1.434,2.177-1.373,3.598
			C96.658,97.85,97.206,99.077,98.239,100.11z"/>
		<path fill="#009866" d="M115.251,92.157c-2.138-0.319-3.899-1.318-5.284-2.998c-1.385-1.68-2.01-3.598-1.874-5.753
			c0.136-2.155,1.029-3.914,2.682-5.276c1.652-1.361,3.536-1.874,5.651-1.537c2.124,0.256,3.884,1.232,5.283,2.929
			c1.398,1.697,2.025,3.617,1.881,5.761c-0.074,0.98-0.33,1.932-0.769,2.855l-0.261,0.468c1.068-0.206,1.864-0.524,2.389-0.957
			c0.524-0.432,0.891-1.091,1.1-1.975c0.074-0.342,0.256-0.604,0.546-0.788c0.29-0.183,0.606-0.237,0.948-0.163
			s0.607,0.259,0.794,0.555c0.188,0.295,0.243,0.625,0.167,0.987c-0.335,1.458-0.967,2.569-1.893,3.333l-0.05,0.042
			c-0.916,0.754-2.213,1.262-3.893,1.521c-0.439,0.081-0.813,0.248-1.119,0.501c-0.308,0.253-0.557,0.519-0.748,0.799
			c-0.191,0.28-0.297,0.465-0.316,0.556c-0.191,0.495-0.529,0.746-1.012,0.75c-0.061-0.006-0.12,0.014-0.175,0.061
			c-0.672-0.178-1.07-0.45-1.193-0.816c-0.124-0.367-0.114-0.712,0.031-1.038l0.022-0.075
			C117.211,92.135,116.242,92.222,115.251,92.157z M119.313,88.556c1.105-0.911,1.694-2.09,1.766-3.537
			c0.073-1.447-0.367-2.749-1.32-3.904c-0.952-1.155-2.148-1.833-3.588-2.034c-1.44-0.2-2.707,0.151-3.801,1.052
			c-1.094,0.902-1.668,2.06-1.722,3.472c-0.117,1.428,0.308,2.728,1.274,3.899c0.966,1.172,2.163,1.869,3.591,2.088
			C116.942,89.813,118.208,89.467,119.313,88.556z"/>
		<path fill="#009866" d="M121.884,67.425c-0.372-0.07-0.668-0.267-0.888-0.589c-0.22-0.323-0.297-0.673-0.23-1.051
			c0.066-0.377,0.261-0.677,0.584-0.896c0.323-0.22,0.675-0.294,1.057-0.222c0.381,0.073,0.683,0.27,0.903,0.593
			c0.22,0.323,0.292,0.672,0.215,1.048c-0.077,0.376-0.276,0.674-0.599,0.894C122.604,67.42,122.256,67.496,121.884,67.425z
			 M135.84,71.083c0.97,1.422,1.295,2.986,0.978,4.69c-0.318,1.705-1.193,3.046-2.628,4.023c-1.435,0.978-3.001,1.306-4.7,0.984
			c-1.699-0.321-3.037-1.2-4.015-2.634l-4.351-6.383c-0.187-0.275-0.25-0.573-0.189-0.895c0.061-0.321,0.229-0.576,0.504-0.764
			c0.274-0.188,0.576-0.252,0.904-0.196s0.585,0.223,0.772,0.498l4.351,6.383c0.595,0.873,1.417,1.411,2.466,1.615
			c1.049,0.204,2.017,0.004,2.901-0.599c0.884-0.603,1.426-1.427,1.624-2.472c0.198-1.045-0.004-2.01-0.607-2.895l-4.351-6.383
			c-0.188-0.275-0.248-0.575-0.181-0.901s0.237-0.582,0.513-0.77c0.274-0.188,0.573-0.25,0.895-0.19
			c0.322,0.061,0.576,0.229,0.764,0.504L135.84,71.083z M125.47,64.98c-0.372-0.07-0.668-0.267-0.888-0.59
			c-0.22-0.323-0.297-0.673-0.23-1.051c0.066-0.377,0.261-0.677,0.583-0.896c0.323-0.22,0.675-0.294,1.057-0.222
			s0.683,0.27,0.903,0.593c0.22,0.323,0.292,0.672,0.215,1.048s-0.276,0.674-0.599,0.894
			C126.189,64.976,125.842,65.051,125.47,64.98z"/>
		<path fill="#009866" d="M135.689,62.215c-0.17-0.286-0.215-0.587-0.135-0.905c0.081-0.317,0.263-0.561,0.549-0.731
			c0.286-0.17,0.591-0.217,0.914-0.141c0.324,0.077,0.571,0.258,0.741,0.543l6.555,10.998c0.17,0.286,0.212,0.589,0.126,0.91
			c-0.086,0.321-0.273,0.567-0.559,0.737c-0.286,0.17-0.587,0.215-0.905,0.135c-0.317-0.08-0.561-0.263-0.731-0.549L135.689,62.215z
			"/>
		<path fill="#009866" d="M150.283,53.218c0.313,0.098,0.546,0.294,0.701,0.588c0.154,0.295,0.181,0.603,0.081,0.925
			s-0.292,0.558-0.574,0.705l-3.056,1.602l5.38,10.263c0.154,0.295,0.183,0.598,0.085,0.911c-0.098,0.313-0.294,0.546-0.588,0.7
			c-0.295,0.155-0.599,0.183-0.911,0.085c-0.313-0.097-0.546-0.293-0.701-0.588l-5.38-10.263l-3.037,1.592
			c-0.295,0.154-0.6,0.18-0.916,0.076c-0.316-0.104-0.551-0.303-0.706-0.598c-0.154-0.294-0.183-0.598-0.085-0.911
			c0.098-0.312,0.293-0.546,0.588-0.7l8.207-4.302C149.667,53.149,149.97,53.121,150.283,53.218z"/>
		<path fill="#009866" d="M160.77,62.125c-1.921-0.857-3.294-2.273-4.123-4.248c-0.828-1.975-0.875-3.947-0.14-5.918
			c0.734-1.971,2.055-3.356,3.963-4.156c1.908-0.8,3.826-0.761,5.755,0.117s3.302,2.291,4.118,4.238
			c0.817,1.948,0.848,3.912,0.093,5.891c-0.321,0.919-0.822,1.744-1.503,2.477c-0.681,0.732-1.475,1.289-2.382,1.669
			C164.617,63.007,162.689,62.983,160.77,62.125z M158.928,56.921c0.565,1.348,1.497,2.318,2.797,2.91
			c1.299,0.593,2.579,0.625,3.84,0.096c1.261-0.528,2.129-1.469,2.605-2.822c0.476-1.353,0.438-2.689-0.116-4.01
			s-1.477-2.287-2.768-2.898c-1.292-0.612-2.575-0.65-3.849-0.116c-1.274,0.534-2.152,1.471-2.634,2.81
			C158.322,54.23,158.364,55.574,158.928,56.921z"/>
		<path fill="#009866" d="M187.046,48.363c0.511,1.644,0.365,3.235-0.438,4.771c-0.802,1.537-2.032,2.563-3.69,3.079
			s-3.252,0.371-4.782-0.434c-1.531-0.804-2.553-2.036-3.068-3.693l-2.293-7.377c-0.099-0.318-0.072-0.622,0.081-0.911
			c0.152-0.29,0.387-0.484,0.705-0.583c0.317-0.099,0.625-0.073,0.921,0.077c0.297,0.15,0.495,0.384,0.593,0.702l2.293,7.377
			c0.313,1.009,0.942,1.764,1.886,2.266c0.943,0.502,1.927,0.594,2.949,0.276c1.022-0.318,1.781-0.947,2.276-1.889
			c0.495-0.941,0.584-1.923,0.266-2.946l-2.293-7.377c-0.099-0.318-0.068-0.623,0.091-0.915c0.159-0.292,0.397-0.487,0.715-0.586
			s0.622-0.072,0.911,0.081s0.484,0.387,0.583,0.705L187.046,48.363z"/>
		<path fill="#009866" d="M199.491,44.73c1.124,0.521,1.831,1.438,2.123,2.751c0.089,0.469,0.21,0.88,0.362,1.231
			c0.392,0.032,0.693,0.22,0.904,0.566c0.21,0.346,0.231,0.708,0.063,1.086c-0.168,0.378-0.478,0.617-0.93,0.718l-0.021,0.004
			c-0.636,0.141-1.209-0.072-1.721-0.64c-0.435-0.556-0.771-1.37-1.009-2.443c-0.172-0.643-0.582-1.086-1.228-1.328
			c-0.421-0.158-0.854-0.24-1.299-0.245l-2.5,0.555l1.021,4.597c0.072,0.325,0.017,0.626-0.167,0.904
			c-0.183,0.278-0.437,0.453-0.761,0.524c-0.325,0.072-0.625,0.021-0.901-0.155c-0.276-0.176-0.45-0.426-0.522-0.751l-2.775-12.499
			c-0.072-0.325-0.021-0.625,0.155-0.901s0.426-0.451,0.751-0.522l3.792-0.842c1.257-0.279,2.425-0.072,3.506,0.622
			c1.08,0.693,1.768,1.705,2.063,3.032C200.69,42.322,200.389,43.567,199.491,44.73z M196.319,44.056
			c0.607-0.135,1.076-0.461,1.405-0.979s0.428-1.077,0.294-1.677s-0.459-1.069-0.979-1.406c-0.519-0.336-1.083-0.438-1.69-0.303
			l-2.605,0.579l0.969,4.364L196.319,44.056z"/>
		<path fill="#009866" d="M223.951,33.413c0.251,0.208,0.394,0.478,0.427,0.809c0.031,0.332-0.059,0.627-0.273,0.888
			s-0.481,0.406-0.797,0.437l-3.434,0.333l1.118,11.534c0.032,0.332-0.056,0.624-0.264,0.876c-0.208,0.253-0.478,0.395-0.809,0.427
			s-0.623-0.056-0.875-0.264c-0.253-0.208-0.396-0.477-0.427-0.809l-1.119-11.534l-3.413,0.331c-0.332,0.032-0.624-0.06-0.877-0.275
			s-0.396-0.488-0.428-0.819s0.056-0.623,0.264-0.876c0.208-0.252,0.478-0.395,0.809-0.427l9.223-0.895
			C223.406,33.116,223.698,33.205,223.951,33.413z"/>
		<path fill="#009866" d="M237.726,47.03l-1.129-2.795l-5.271,0.124l-0.997,2.845c-0.19,0.511-0.535,0.772-1.034,0.784
			s-0.861-0.157-1.087-0.506c-0.225-0.349-0.276-0.713-0.155-1.092l4.494-12.89c0.096-0.233,0.247-0.425,0.453-0.575
			c0.207-0.149,0.433-0.22,0.68-0.211c0.549-0.042,0.938,0.202,1.167,0.732l5.095,12.666c0.139,0.373,0.104,0.739-0.104,1.099
			c-0.209,0.359-0.563,0.545-1.062,0.557S237.926,47.532,237.726,47.03z M232.137,41.952l3.515-0.083l-1.867-4.623L232.137,41.952z"
			/>
		<path fill="#009866" d="M243.795,47.9c-0.333-0.015-0.609-0.143-0.83-0.385c-0.222-0.241-0.324-0.528-0.31-0.861l0.568-12.79
			c0.015-0.333,0.143-0.609,0.385-0.83c0.241-0.221,0.528-0.324,0.86-0.31c0.333,0.015,0.613,0.144,0.841,0.385
			c0.229,0.242,0.335,0.529,0.32,0.861l-0.515,11.576l5.875,0.261c0.318,0.014,0.591,0.146,0.819,0.395
			c0.228,0.249,0.334,0.537,0.319,0.861c-0.014,0.325-0.146,0.602-0.395,0.83c-0.249,0.228-0.533,0.335-0.851,0.321L243.795,47.9z"
			/>
		<path fill="#009866" d="M256.506,48.356c-0.257,0.203-0.551,0.285-0.881,0.246c-0.331-0.039-0.598-0.187-0.8-0.444
			c-0.203-0.256-0.285-0.55-0.246-0.881l1.481-12.608c0.037-0.316,0.185-0.579,0.442-0.789s0.552-0.296,0.882-0.257
			c0.331,0.039,0.597,0.19,0.799,0.454c0.202,0.264,0.285,0.555,0.248,0.871l-0.728,6.185l7.806-6.184
			c0.257-0.203,0.551-0.285,0.882-0.246c0.33,0.039,0.597,0.187,0.8,0.444c0.202,0.257,0.285,0.55,0.246,0.881
			s-0.188,0.597-0.443,0.8l-5.297,4.163l4.048,6.834c0.285,0.427,0.282,0.853-0.008,1.277s-0.641,0.613-1.05,0.565
			c-0.409-0.048-0.72-0.23-0.93-0.546l-3.938-6.646l-2.51,2.021l-0.36,3.06C256.912,47.887,256.763,48.154,256.506,48.356z"/>
		<path fill="#009866" d="M272.084,36.729c0.058-0.328,0.221-0.585,0.489-0.773c0.268-0.188,0.566-0.252,0.894-0.194
			c0.328,0.058,0.589,0.222,0.784,0.491c0.194,0.27,0.263,0.568,0.205,0.896l-2.231,12.607c-0.059,0.328-0.226,0.585-0.501,0.771
			s-0.576,0.25-0.904,0.192s-0.585-0.221-0.772-0.489s-0.253-0.566-0.194-0.894L272.084,36.729z"/>
		<path fill="#009866" d="M280.427,42.205l-2.115,8.754c-0.074,0.31-0.253,0.553-0.533,0.73c-0.281,0.178-0.58,0.229-0.896,0.152
			c-0.316-0.076-0.56-0.254-0.73-0.534c-0.171-0.279-0.217-0.58-0.139-0.904l2.966-12.276c0.069-0.415,0.281-0.691,0.635-0.829
			c0.354-0.138,0.679-0.145,0.977-0.021c0.297,0.124,0.507,0.334,0.629,0.632l4.535,11.074l2.1-8.69
			c0.074-0.309,0.251-0.549,0.531-0.72c0.278-0.171,0.573-0.219,0.883-0.144c0.309,0.075,0.553,0.253,0.73,0.534
			c0.178,0.281,0.229,0.576,0.154,0.886l-2.96,12.255c-0.078,0.324-0.261,0.57-0.547,0.739s-0.592,0.214-0.915,0.136
			s-0.57-0.287-0.741-0.626c-0.043-0.069-0.068-0.12-0.075-0.152L280.427,42.205z"/>
		<path fill="#009866" d="M304.457,57.088c-0.056,0.164-0.142,0.303-0.256,0.417l-0.008,0.021c-0.134,0.168-0.319,0.289-0.558,0.36
			c-1.733,0.602-3.47,0.606-5.209,0.014c-2.095-0.713-3.639-2.038-4.63-3.972c-0.992-1.935-1.138-3.929-0.438-5.983
			s2.035-3.551,4.006-4.493c1.971-0.941,4.004-1.055,6.1-0.341c1.767,0.602,3.146,1.667,4.138,3.197
			c0.194,0.28,0.257,0.592,0.187,0.934c-0.071,0.343-0.246,0.608-0.523,0.796c-0.278,0.188-0.589,0.247-0.932,0.176
			c-0.342-0.071-0.609-0.253-0.799-0.547c-0.707-1.066-1.721-1.824-3.043-2.274c-1.321-0.45-2.663-0.357-4.026,0.279
			c-1.362,0.636-2.282,1.653-2.758,3.049c-0.476,1.397-0.364,2.764,0.334,4.103c0.698,1.338,1.759,2.25,3.184,2.735
			c0.972,0.331,1.999,0.39,3.08,0.178l0.958-2.814l-2.938-1c-0.314-0.107-0.549-0.317-0.702-0.629
			c-0.154-0.312-0.176-0.629-0.066-0.951s0.314-0.554,0.615-0.696s0.615-0.158,0.944-0.045l4.088,1.392
			c0.328,0.112,0.571,0.317,0.729,0.615s0.182,0.612,0.069,0.941L304.457,57.088z"/>
		<path fill="#009866" d="M326.018,64.76c0.491-0.983-0.297-2.257-2.362-3.821l-0.039-0.02c-0.913-0.697-1.651-1.405-2.215-2.123
			c-0.563-0.718-0.88-1.437-0.948-2.158c-0.069-0.721,0.042-1.373,0.332-1.956c0.563-1.126,1.519-1.805,2.871-2.036
			c1.352-0.231,2.675-0.024,3.97,0.622c0.569,0.284,1.104,0.671,1.603,1.163c0.498,0.491,0.852,0.894,1.059,1.207
			c0.208,0.313,0.474,0.745,0.798,1.295c0.143,0.265,0.175,0.548,0.098,0.849c-0.077,0.301-0.247,0.528-0.509,0.68
			s-0.543,0.19-0.844,0.112c-0.302-0.077-0.529-0.251-0.686-0.523c-0.401-0.718-0.787-1.298-1.156-1.741
			c-0.37-0.443-0.819-0.797-1.351-1.061c-0.854-0.426-1.653-0.574-2.397-0.444c-0.743,0.13-1.229,0.422-1.454,0.875
			c-0.11,0.22-0.152,0.434-0.126,0.641c0.065,0.776,0.82,1.71,2.265,2.802l0.039,0.019c0.978,0.763,1.735,1.48,2.272,2.152
			c1.212,1.59,1.473,3.078,0.782,4.463c-0.601,1.204-1.624,1.927-3.069,2.167c-1.446,0.241-2.861,0.016-4.247-0.674
			c-1.689-0.859-3.023-2.333-4.003-4.421c-0.123-0.271-0.13-0.558-0.021-0.859s0.301-0.513,0.572-0.636s0.558-0.13,0.858-0.021
			c0.301,0.11,0.51,0.307,0.627,0.591c0.739,1.629,1.727,2.745,2.964,3.345c0.971,0.484,1.868,0.653,2.693,0.506
			C325.218,65.61,325.76,65.278,326.018,64.76z"/>
		<path fill="#009866" d="M344.833,63.802c0.08,0.317,0.035,0.619-0.136,0.904c-0.171,0.286-0.419,0.47-0.746,0.553
			c-0.328,0.083-0.628,0.042-0.901-0.12l-2.963-1.768l-5.937,9.952c-0.17,0.286-0.414,0.469-0.731,0.549
			c-0.317,0.081-0.619,0.035-0.904-0.135c-0.286-0.17-0.47-0.414-0.549-0.731c-0.081-0.317-0.035-0.619,0.135-0.905l5.936-9.952
			l-2.944-1.756c-0.286-0.17-0.467-0.417-0.543-0.741c-0.077-0.324-0.03-0.628,0.141-0.914c0.17-0.286,0.414-0.469,0.731-0.549
			c0.317-0.08,0.619-0.035,0.905,0.135l7.957,4.747C344.569,63.24,344.751,63.484,344.833,63.802z"/>
		<path fill="#009866" d="M347.842,82.932l0.749-2.92l-4.317-3.028l-2.49,1.699c-0.457,0.298-0.889,0.304-1.298,0.018
			c-0.408-0.287-0.6-0.637-0.574-1.052c0.026-0.415,0.2-0.738,0.522-0.972l11.266-7.711c0.216-0.131,0.451-0.196,0.706-0.194
			c0.254,0.002,0.479,0.08,0.672,0.233c0.466,0.292,0.635,0.719,0.505,1.282l-3.412,13.218c-0.109,0.383-0.354,0.657-0.735,0.823
			c-0.382,0.166-0.776,0.105-1.185-0.182C347.841,83.859,347.706,83.455,347.842,82.932z M346.355,75.528l2.879,2.019l1.239-4.829
			L346.355,75.528z"/>
		<path fill="#009866" d="M368.521,81.38c0.032,0.326-0.057,0.618-0.267,0.875c-0.211,0.258-0.484,0.403-0.82,0.437
			c-0.336,0.034-0.627-0.05-0.873-0.251l-2.671-2.184l-7.334,8.972c-0.211,0.258-0.479,0.403-0.805,0.436
			c-0.326,0.033-0.617-0.056-0.875-0.267c-0.258-0.21-0.403-0.479-0.436-0.804c-0.033-0.326,0.056-0.617,0.267-0.875l7.334-8.972
			l-2.654-2.17c-0.258-0.211-0.4-0.481-0.429-0.813c-0.028-0.331,0.063-0.625,0.273-0.883c0.211-0.257,0.479-0.403,0.805-0.436
			c0.325-0.033,0.617,0.056,0.875,0.267l7.174,5.864C368.343,80.786,368.488,81.055,368.521,81.38z"/>
		<path fill="#009866" d="M375.163,99.375c-1.196,1.238-2.661,1.875-4.395,1.909s-3.225-0.551-4.473-1.757
			c-1.248-1.206-1.888-2.673-1.917-4.402c-0.03-1.729,0.559-3.217,1.765-4.466l5.368-5.555c0.231-0.239,0.511-0.362,0.838-0.367
			c0.327-0.006,0.61,0.107,0.85,0.338c0.239,0.231,0.364,0.513,0.375,0.845c0.011,0.333-0.099,0.618-0.33,0.857l-5.368,5.555
			c-0.734,0.76-1.095,1.674-1.081,2.743c0.013,1.069,0.404,1.975,1.175,2.719c0.77,0.744,1.687,1.106,2.75,1.088
			s1.968-0.412,2.712-1.182l5.368-5.555c0.23-0.239,0.513-0.359,0.845-0.36c0.333,0,0.619,0.114,0.858,0.346
			s0.361,0.511,0.367,0.838c0.005,0.327-0.107,0.611-0.339,0.85L375.163,99.375z"/>
		<path fill="#009866" d="M374.789,108.226c-0.221-0.25-0.32-0.538-0.3-0.864s0.155-0.6,0.405-0.82l9.604-8.467
			c0.249-0.22,0.537-0.32,0.864-0.299c0.326,0.021,0.6,0.155,0.82,0.405l4.692,5.322c0.211,0.239,0.308,0.524,0.292,0.856
			s-0.148,0.608-0.397,0.828c-0.25,0.22-0.543,0.319-0.88,0.298s-0.61-0.151-0.821-0.39l-3.889-4.411l-2.979,2.626l3.344,3.792
			c0.21,0.239,0.305,0.527,0.283,0.864c-0.021,0.337-0.153,0.613-0.397,0.828s-0.532,0.315-0.864,0.299
			c-0.333-0.016-0.608-0.148-0.829-0.398l-3.344-3.792l-2.994,2.641l3.889,4.411c0.21,0.239,0.306,0.527,0.284,0.864
			s-0.154,0.613-0.398,0.828s-0.534,0.313-0.871,0.291c-0.337-0.021-0.611-0.151-0.821-0.39l-4.649-5.274l-0.013-0.047
			L374.789,108.226z"/>
	</g>
	<g>
		<path fill="#009866" d="M129.012,422.208l-0.158,0.017l-0.014-0.008c-0.027-0.016-0.077-0.026-0.147-0.032l-0.042-0.023
			c-0.033-0.007-0.079-0.028-0.139-0.063s-0.101-0.064-0.123-0.09l-0.041-0.024c-0.044-0.051-0.07-0.08-0.077-0.091
			c-0.006-0.01-0.019-0.025-0.036-0.048s-0.039-0.065-0.063-0.129l-0.014-0.008c-0.021-0.049-0.038-0.104-0.05-0.167
			s-0.023-0.107-0.031-0.137l0.008-0.014c-0.004-0.014-0.003-0.041,0.001-0.081s0.005-0.066,0.002-0.081l1.267-9.91
			c0.038-0.233,0.152-0.423,0.342-0.567s0.402-0.196,0.637-0.156c0.231,0.025,0.423,0.135,0.575,0.328
			c0.152,0.192,0.208,0.405,0.17,0.639l-0.998,7.876l4.222-3.134c0.309-0.232,0.636-0.248,0.979-0.047s0.494,0.497,0.451,0.886
			l-0.675,5.214l6.374-4.722c0.194-0.142,0.41-0.195,0.648-0.159c0.237,0.036,0.43,0.149,0.577,0.339
			c0.147,0.19,0.203,0.405,0.167,0.646c-0.037,0.241-0.149,0.428-0.338,0.561l-8.018,5.95c-0.061,0.062-0.154,0.104-0.279,0.129
			c-0.005,0.009-0.018,0.02-0.038,0.032c-0.047-0.003-0.093,0.001-0.136,0.012l-0.014-0.008l-0.172,0.009l-0.014-0.008
			c-0.009-0.006-0.02-0.009-0.031-0.01c-0.012-0.001-0.051-0.008-0.116-0.022l-0.027-0.016c-0.033-0.007-0.079-0.028-0.139-0.063
			c-0.06-0.035-0.101-0.064-0.123-0.09l-0.042-0.024c-0.044-0.05-0.07-0.08-0.076-0.091c-0.007-0.01-0.02-0.023-0.04-0.041
			c-0.021-0.019-0.041-0.063-0.06-0.136l-0.014-0.008c-0.051-0.103-0.073-0.201-0.067-0.295c-0.026-0.04-0.027-0.102-0.003-0.185
			l0.671-5.271l-4.273,3.158c-0.025,0.021-0.067,0.052-0.127,0.09l-0.152,0.039c-0.005,0.009-0.018,0.02-0.038,0.032
			c-0.024-0.001-0.064,0.005-0.122,0.02L129.012,422.208z"/>
		<path fill="#009866" d="M145.167,431l-0.156,0.03l-0.014-0.007c-0.029-0.014-0.079-0.02-0.15-0.019l-0.043-0.021
			c-0.034-0.004-0.082-0.021-0.144-0.051c-0.063-0.029-0.106-0.056-0.13-0.079l-0.043-0.021c-0.049-0.046-0.077-0.074-0.084-0.083
			c-0.007-0.01-0.021-0.024-0.041-0.046c-0.02-0.021-0.044-0.062-0.074-0.122l-0.014-0.007c-0.025-0.047-0.046-0.101-0.064-0.162
			c-0.018-0.061-0.033-0.104-0.042-0.133l0.007-0.015c-0.005-0.014-0.007-0.041-0.006-0.081s0-0.067-0.005-0.081l0.397-9.983
			c0.018-0.235,0.115-0.434,0.291-0.595c0.176-0.16,0.383-0.23,0.621-0.211c0.232,0.006,0.433,0.098,0.601,0.276
			c0.168,0.179,0.243,0.386,0.226,0.622l-0.307,7.933l3.933-3.49c0.287-0.259,0.611-0.303,0.971-0.133
			c0.36,0.171,0.536,0.452,0.526,0.844l-0.217,5.253l5.938-5.26c0.181-0.159,0.391-0.23,0.631-0.216
			c0.24,0.016,0.441,0.111,0.605,0.287c0.163,0.177,0.237,0.387,0.222,0.629c-0.015,0.243-0.111,0.438-0.288,0.588l-7.468,6.627
			c-0.055,0.067-0.144,0.118-0.267,0.153c-0.004,0.009-0.016,0.021-0.035,0.035c-0.047,0.001-0.092,0.009-0.134,0.023l-0.015-0.007
			l-0.17,0.024l-0.015-0.007c-0.01-0.005-0.021-0.007-0.032-0.007s-0.051-0.004-0.118-0.013l-0.029-0.014
			c-0.033-0.004-0.081-0.021-0.144-0.05c-0.063-0.03-0.105-0.057-0.13-0.08l-0.043-0.021c-0.049-0.046-0.077-0.073-0.084-0.083
			c-0.008-0.009-0.022-0.021-0.044-0.038s-0.045-0.06-0.071-0.13l-0.014-0.007c-0.06-0.098-0.091-0.193-0.093-0.288
			c-0.029-0.037-0.036-0.098-0.019-0.184l0.208-5.31l-3.982,3.52c-0.023,0.023-0.063,0.058-0.118,0.101l-0.148,0.052
			c-0.005,0.01-0.017,0.021-0.035,0.036c-0.024,0-0.064,0.011-0.121,0.03L145.167,431z"/>
		<path fill="#009866" d="M162.038,438.351l-0.153,0.045l-0.015-0.006c-0.03-0.011-0.081-0.013-0.151-0.006l-0.045-0.017
			c-0.034-0.001-0.083-0.014-0.147-0.038c-0.065-0.023-0.11-0.046-0.137-0.067l-0.045-0.017c-0.052-0.042-0.083-0.067-0.091-0.075
			c-0.008-0.009-0.023-0.022-0.044-0.042c-0.021-0.019-0.049-0.058-0.084-0.115l-0.015-0.006c-0.029-0.044-0.055-0.096-0.078-0.155
			c-0.023-0.06-0.042-0.103-0.054-0.129l0.005-0.016c-0.006-0.013-0.01-0.04-0.013-0.08c-0.002-0.04-0.006-0.066-0.013-0.08
			l-0.477-9.979c-0.003-0.236,0.076-0.442,0.238-0.618c0.161-0.176,0.361-0.264,0.6-0.265c0.232-0.015,0.439,0.06,0.623,0.223
			s0.276,0.363,0.279,0.6l0.388,7.929l3.612-3.82c0.264-0.282,0.583-0.354,0.956-0.216s0.573,0.403,0.598,0.793l0.243,5.253
			l5.455-5.76c0.167-0.174,0.37-0.264,0.61-0.27c0.24-0.006,0.449,0.072,0.627,0.233s0.27,0.363,0.276,0.606
			c0.006,0.244-0.073,0.447-0.235,0.61l-6.86,7.256c-0.049,0.071-0.133,0.13-0.252,0.175c-0.004,0.01-0.014,0.022-0.031,0.039
			c-0.047,0.005-0.091,0.017-0.132,0.035l-0.015-0.006l-0.167,0.039l-0.015-0.006c-0.01-0.004-0.021-0.005-0.033-0.004
			c-0.012,0.002-0.051,0.001-0.118-0.002l-0.03-0.011c-0.034-0.001-0.083-0.014-0.147-0.038c-0.065-0.024-0.11-0.047-0.137-0.067
			l-0.044-0.017c-0.053-0.042-0.083-0.067-0.091-0.076c-0.008-0.009-0.024-0.02-0.046-0.034c-0.023-0.014-0.051-0.055-0.082-0.123
			l-0.015-0.005c-0.067-0.093-0.107-0.186-0.117-0.279c-0.033-0.034-0.044-0.095-0.035-0.181l-0.256-5.308l-3.659,3.854
			c-0.021,0.025-0.057,0.063-0.109,0.11l-0.143,0.064c-0.004,0.011-0.014,0.023-0.031,0.039c-0.024,0.003-0.063,0.017-0.117,0.041
			L162.038,438.351z"/>
		<path fill="#009866" d="M175.415,442.795c-0.217-0.404-0.257-0.829-0.12-1.273c0.137-0.445,0.41-0.777,0.819-0.997
			c0.409-0.219,0.839-0.26,1.289-0.121c0.449,0.139,0.785,0.415,1.007,0.829c0.222,0.414,0.265,0.843,0.127,1.288
			c-0.137,0.444-0.413,0.771-0.827,0.981c-0.415,0.211-0.847,0.246-1.296,0.107C175.964,443.471,175.631,443.201,175.415,442.795z"
			/>
		<path fill="#009866" d="M180.818,444.736c-0.236-0.063-0.414-0.198-0.534-0.405c-0.121-0.206-0.149-0.427-0.086-0.66l2.423-8.979
			c0.063-0.233,0.198-0.409,0.406-0.526c0.208-0.118,0.43-0.146,0.666-0.082c0.236,0.063,0.417,0.2,0.542,0.407
			c0.125,0.208,0.157,0.429,0.094,0.662l-2.193,8.127l4.17,1.125c0.226,0.061,0.401,0.198,0.525,0.411s0.155,0.434,0.094,0.662
			s-0.2,0.403-0.414,0.524c-0.214,0.122-0.435,0.152-0.66,0.092L180.818,444.736z"/>
		<path fill="#009866" d="M190.592,445.537c-0.806-1.308-1.047-2.723-0.727-4.244s1.113-2.719,2.377-3.591s2.64-1.151,4.127-0.839
			c1.487,0.313,2.631,1.132,3.434,2.455c0.802,1.323,1.044,2.735,0.729,4.237c-0.316,1.501-1.115,2.686-2.394,3.555
			c-0.577,0.416-1.223,0.701-1.94,0.855c-0.717,0.155-1.429,0.158-2.136,0.01C192.554,447.658,191.397,446.844,190.592,445.537z
			 M191.644,441.667c-0.219,1.039-0.059,2.004,0.481,2.896c0.54,0.893,1.301,1.441,2.283,1.648c0.983,0.207,1.899,0.006,2.75-0.604
			c0.851-0.61,1.383-1.424,1.598-2.442c0.214-1.018,0.058-1.977-0.469-2.877c-0.527-0.9-1.288-1.455-2.28-1.664
			c-0.993-0.21-1.914-0.014-2.763,0.586S191.862,440.628,191.644,441.667z"/>
		<path fill="#009866" d="M204.248,448.629c-0.889-1.304-1.222-2.739-1-4.305c0.222-1.566,0.95-2.84,2.184-3.822
			c1.234-0.981,2.629-1.362,4.187-1.142s2.77,0.981,3.637,2.283c0.916,1.266,1.261,2.688,1.037,4.27
			c-0.224,1.582-0.952,2.858-2.185,3.83c-0.567,0.439-1.209,0.768-1.927,0.984l-0.383,0.089c0.641,0.473,1.209,0.744,1.704,0.814
			s1.033-0.056,1.615-0.376c0.222-0.128,0.455-0.158,0.698-0.092c0.243,0.065,0.429,0.209,0.559,0.429
			c0.13,0.221,0.162,0.453,0.094,0.698c-0.067,0.245-0.217,0.437-0.451,0.573c-0.956,0.533-1.871,0.737-2.744,0.613l-0.047-0.006
			c-0.863-0.123-1.781-0.571-2.755-1.346c-0.262-0.197-0.538-0.315-0.827-0.356s-0.557-0.045-0.803-0.011
			c-0.247,0.034-0.399,0.068-0.458,0.103c-0.363,0.14-0.666,0.081-0.909-0.177c-0.027-0.035-0.067-0.057-0.12-0.064
			c-0.237-0.447-0.287-0.794-0.15-1.04s0.329-0.41,0.577-0.491l0.052-0.024C205.232,449.671,204.705,449.193,204.248,448.629z
			 M208.213,449.048c1.042,0.147,1.972-0.113,2.792-0.782c0.819-0.67,1.306-1.543,1.458-2.619c0.153-1.077-0.074-2.051-0.681-2.923
			c-0.606-0.871-1.425-1.38-2.456-1.526c-1.031-0.146-1.942,0.112-2.734,0.775c-0.831,0.636-1.324,1.499-1.479,2.592
			s0.063,2.076,0.653,2.95C206.356,448.389,207.172,448.9,208.213,449.048z"/>
		<path fill="#009866" d="M226.609,447.74c-0.095,1.247-0.624,2.282-1.587,3.104c-0.963,0.822-2.081,1.186-3.352,1.089
			s-2.321-0.622-3.149-1.575c-0.828-0.954-1.194-2.06-1.099-3.316l0.425-5.596c0.019-0.24,0.119-0.438,0.301-0.594
			c0.182-0.154,0.395-0.223,0.639-0.204s0.447,0.118,0.609,0.3c0.162,0.181,0.234,0.392,0.216,0.633l-0.426,5.595
			c-0.058,0.765,0.167,1.443,0.677,2.035c0.509,0.592,1.156,0.918,1.94,0.978s1.472-0.162,2.065-0.665
			c0.592-0.503,0.918-1.142,0.977-1.917l0.425-5.596c0.019-0.24,0.121-0.438,0.309-0.593c0.188-0.154,0.403-0.223,0.647-0.204
			c0.244,0.019,0.444,0.118,0.601,0.299s0.226,0.392,0.208,0.633L226.609,447.74z"/>
		<path fill="#009866" d="M230.865,442.27c0.008-0.242,0.1-0.443,0.274-0.606c0.176-0.162,0.386-0.239,0.63-0.231
			s0.451,0.099,0.621,0.272s0.251,0.381,0.243,0.623l-0.302,9.294c-0.008,0.242-0.103,0.444-0.283,0.606s-0.394,0.239-0.638,0.231
			s-0.448-0.099-0.613-0.272c-0.164-0.173-0.242-0.381-0.234-0.622L230.865,442.27z"/>
		<path fill="#009866" d="M242.995,441.72c0.173,0.165,0.261,0.369,0.265,0.61c0.004,0.242-0.08,0.451-0.253,0.627
			c-0.172,0.176-0.376,0.266-0.609,0.27l-2.534,0.041l0.135,8.416c0.004,0.241-0.077,0.448-0.245,0.618
			c-0.167,0.171-0.373,0.259-0.617,0.263s-0.453-0.077-0.626-0.242s-0.261-0.369-0.265-0.61l-0.135-8.416l-2.519,0.04
			c-0.244,0.004-0.453-0.079-0.625-0.25c-0.173-0.171-0.262-0.377-0.266-0.618c-0.004-0.242,0.078-0.448,0.245-0.619
			s0.373-0.258,0.618-0.262l6.806-0.109C242.614,441.474,242.822,441.555,242.995,441.72z"/>
		<path fill="#009866" d="M247.457,450.735c-1.125-1.046-1.734-2.345-1.831-3.897c-0.096-1.552,0.35-2.917,1.336-4.094
			s2.238-1.813,3.755-1.906s2.838,0.391,3.963,1.452c1.125,1.063,1.735,2.359,1.83,3.89c0.095,1.532-0.359,2.887-1.361,4.064
			c-0.445,0.554-0.992,1.001-1.643,1.341c-0.649,0.341-1.335,0.533-2.056,0.578C249.912,452.257,248.581,451.782,247.457,450.735z
			 M247.44,446.725c0.065,1.06,0.477,1.947,1.234,2.663c0.758,0.717,1.638,1.044,2.641,0.982c1.002-0.063,1.832-0.501,2.489-1.315
			c0.658-0.814,0.954-1.74,0.891-2.779c-0.064-1.038-0.471-1.921-1.219-2.648c-0.747-0.728-1.628-1.061-2.641-0.997
			c-1.013,0.063-1.849,0.496-2.507,1.3S247.375,445.666,247.44,446.725z"/>
		<path fill="#009866" d="M269.187,445.773c0.158,1.241-0.151,2.36-0.93,3.36c-0.777,0.999-1.799,1.58-3.063,1.741
			c-1.266,0.161-2.399-0.142-3.402-0.909s-1.584-1.776-1.744-3.027l-0.709-5.566c-0.03-0.239,0.027-0.453,0.175-0.642
			s0.343-0.298,0.585-0.329c0.242-0.03,0.461,0.026,0.656,0.171s0.309,0.337,0.339,0.576l0.71,5.566
			c0.097,0.761,0.454,1.38,1.072,1.857c0.617,0.478,1.316,0.666,2.097,0.567c0.78-0.1,1.409-0.455,1.889-1.067
			c0.479-0.611,0.67-1.304,0.571-2.075l-0.71-5.566c-0.03-0.239,0.031-0.453,0.184-0.643c0.152-0.188,0.35-0.299,0.593-0.33
			c0.242-0.03,0.458,0.026,0.648,0.172c0.189,0.146,0.3,0.338,0.331,0.577L269.187,445.773z"/>
		<path fill="#009866" d="M278.644,443.592c0.81,0.405,1.305,1.088,1.482,2.049c0.053,0.344,0.13,0.645,0.232,0.903
			c0.287,0.032,0.503,0.177,0.647,0.433c0.145,0.257,0.15,0.521,0.017,0.791s-0.367,0.437-0.701,0.498l-0.016,0.003
			c-0.471,0.088-0.886-0.081-1.245-0.506c-0.304-0.414-0.528-1.014-0.674-1.799c-0.109-0.472-0.398-0.803-0.865-0.994
			c-0.305-0.125-0.62-0.194-0.947-0.209l-1.85,0.343l0.624,3.363c0.044,0.237-0.005,0.455-0.146,0.652s-0.333,0.318-0.573,0.362
			c-0.24,0.045-0.459,0-0.657-0.134c-0.198-0.135-0.318-0.32-0.362-0.559l-1.696-9.144c-0.044-0.237,0.002-0.454,0.139-0.65
			s0.325-0.317,0.565-0.361l2.806-0.521c0.93-0.173,1.781,0.006,2.556,0.536c0.773,0.529,1.25,1.28,1.431,2.251
			C279.589,441.873,279.334,442.769,278.644,443.592z M276.334,443.027c0.449-0.084,0.802-0.31,1.058-0.678s0.344-0.771,0.262-1.211
			c-0.081-0.438-0.308-0.787-0.68-1.044s-0.783-0.344-1.232-0.261l-1.928,0.357l0.593,3.193L276.334,443.027z"/>
		<path fill="#009866" d="M290.426,445.568l-1.234-1.813l-3.769,0.896l-0.285,2.175c-0.06,0.393-0.268,0.631-0.625,0.716
			c-0.356,0.084-0.642,0.021-0.856-0.193s-0.308-0.464-0.277-0.752l1.277-9.848c0.033-0.181,0.112-0.34,0.238-0.478
			c0.125-0.138,0.277-0.223,0.455-0.255c0.389-0.113,0.705,0,0.95,0.341l5.577,8.216c0.156,0.244,0.187,0.51,0.091,0.797
			s-0.321,0.474-0.678,0.559C290.933,446.014,290.645,445.894,290.426,445.568z M285.642,442.818l2.512-0.598l-2.04-2.998
			L285.642,442.818z"/>
		<path fill="#009866" d="M297.824,433.65c0.827,0.449,1.371,1.12,1.63,2.014c0.259,0.893,0.159,1.748-0.301,2.565
			s-1.145,1.357-2.053,1.621l-1.883,0.547l0.953,3.284c0.067,0.232,0.04,0.454-0.081,0.664c-0.122,0.21-0.3,0.35-0.534,0.418
			c-0.235,0.068-0.458,0.045-0.668-0.069s-0.349-0.287-0.416-0.52l-2.592-8.931c-0.067-0.232-0.043-0.453,0.073-0.662
			c0.116-0.208,0.292-0.347,0.527-0.415l2.74-0.795C296.128,433.108,296.997,433.201,297.824,433.65z M293.825,435.598l0.905,3.118
			l1.883-0.546c0.438-0.128,0.768-0.388,0.985-0.779c0.219-0.392,0.271-0.801,0.158-1.228c-0.139-0.44-0.405-0.769-0.8-0.982
			c-0.394-0.214-0.811-0.257-1.249-0.13L293.825,435.598z"/>
		<path fill="#009866" d="M306.612,430.724c0.847,0.411,1.421,1.056,1.721,1.937c0.301,0.88,0.239,1.739-0.182,2.576
			c-0.422,0.838-1.081,1.41-1.976,1.715l-1.855,0.633l1.104,3.237c0.078,0.229,0.062,0.451-0.051,0.667
			c-0.111,0.216-0.283,0.363-0.515,0.441c-0.231,0.079-0.454,0.066-0.669-0.038c-0.216-0.104-0.362-0.271-0.44-0.499l-3.001-8.802
			c-0.078-0.229-0.064-0.45,0.043-0.664c0.106-0.214,0.275-0.36,0.507-0.439l2.7-0.921
			C304.893,430.261,305.764,430.314,306.612,430.724z M302.707,432.855l1.048,3.073l1.856-0.633
			c0.432-0.147,0.748-0.422,0.948-0.823c0.2-0.4,0.233-0.812,0.102-1.233c-0.159-0.434-0.44-0.749-0.844-0.944
			c-0.404-0.195-0.822-0.22-1.255-0.072L302.707,432.855z"/>
		<path fill="#009866" d="M313.654,438.452c-0.42-0.186-0.713-0.495-0.879-0.93s-0.155-0.865,0.031-1.29
			c0.188-0.425,0.501-0.722,0.94-0.89c0.439-0.167,0.874-0.156,1.305,0.032c0.43,0.189,0.728,0.502,0.894,0.937
			s0.15,0.862-0.047,1.283c-0.196,0.421-0.515,0.715-0.954,0.883S314.074,438.636,313.654,438.452z"/>
		<path fill="#009866" d="M317.339,428.271c-0.398,1.032-0.388,2.034,0.034,3.009c0.422,0.974,1.145,1.648,2.17,2.023
			s2.016,0.355,2.971-0.058c0.956-0.414,1.656-1.031,2.1-1.854c0.111-0.197,0.29-0.332,0.537-0.404
			c0.246-0.072,0.48-0.054,0.701,0.057c0.216,0.125,0.358,0.307,0.428,0.546c0.068,0.239,0.044,0.464-0.072,0.675
			c-0.65,1.175-1.614,2.038-2.892,2.591c-1.463,0.634-2.94,0.669-4.435,0.107c-1.493-0.562-2.557-1.559-3.188-2.991
			c-0.608-1.431-0.605-2.884,0.007-4.357c0.613-1.473,1.649-2.53,3.107-3.174c1.277-0.553,2.567-0.664,3.868-0.334
			c0.238,0.068,0.42,0.208,0.545,0.417s0.156,0.436,0.095,0.68c-0.063,0.245-0.204,0.432-0.426,0.563
			c-0.222,0.13-0.444,0.164-0.668,0.101c-0.884-0.248-1.806-0.164-2.766,0.252C318.496,426.535,317.791,427.252,317.339,428.271z"/>
		<path fill="#009866" d="M330.417,429.774c-1.449-0.511-2.527-1.458-3.235-2.843c-0.708-1.384-0.846-2.813-0.411-4.286
			c0.435-1.474,1.328-2.556,2.681-3.248s2.758-0.775,4.213-0.252c1.456,0.524,2.533,1.47,3.231,2.836
			c0.699,1.365,0.824,2.789,0.376,4.27c-0.187,0.686-0.51,1.313-0.97,1.885c-0.459,0.572-1.011,1.022-1.654,1.352
			C333.275,430.188,331.865,430.284,330.417,429.774z M328.799,426.104c0.483,0.945,1.215,1.595,2.195,1.948
			c0.981,0.354,1.919,0.303,2.813-0.154c0.895-0.458,1.48-1.191,1.758-2.2c0.277-1.01,0.179-1.978-0.295-2.903
			c-0.474-0.927-1.198-1.574-2.175-1.942c-0.976-0.368-1.916-0.321-2.819,0.142c-0.903,0.462-1.496,1.192-1.778,2.192
			C328.215,424.187,328.316,425.159,328.799,426.104z"/>
		<path fill="#009866" d="M344.858,419.28l-0.027,0.016c-0.264,0.159-0.536,0.181-0.815,0.066l-3.575-1.532l3.411,5.692
			c0.124,0.207,0.154,0.428,0.09,0.662c-0.063,0.234-0.2,0.414-0.41,0.54s-0.431,0.16-0.663,0.104
			c-0.231-0.057-0.41-0.189-0.534-0.396l-4.78-7.977c-0.125-0.208-0.157-0.427-0.098-0.659c0.06-0.231,0.194-0.41,0.403-0.535
			l0.041-0.025c0.265-0.158,0.527-0.175,0.788-0.049l4.957,2.101l0.485-5.362c0.03-0.3,0.173-0.526,0.429-0.68l0.014-0.008
			c0.215-0.117,0.441-0.147,0.678-0.094c0.237,0.054,0.415,0.18,0.533,0.378l4.78,7.978c0.119,0.198,0.148,0.417,0.087,0.655
			c-0.062,0.239-0.197,0.421-0.406,0.547c-0.21,0.126-0.431,0.16-0.663,0.104s-0.41-0.188-0.535-0.396l-3.411-5.691l-0.348,3.884
			C345.256,418.9,345.114,419.126,344.858,419.28z"/>
	</g>
</g>
</svg>
