<?xml version="1.0" encoding="utf-8"?>
<!-- Generator: Adobe Illustrator 16.0.0, SVG Export Plug-In . SVG Version: 6.00 Build 0)  -->
<!DOCTYPE svg PUBLIC "-//W3C//DTD SVG 1.1//EN" "http://www.w3.org/Graphics/SVG/1.1/DTD/svg11.dtd">
<svg version="1.1" id="Livello_1" xmlns="http://www.w3.org/2000/svg" xmlns:xlink="http://www.w3.org/1999/xlink" x="0px" y="0px"
	 width="400px" height="400px" viewBox="0 0 400 400" enable-background="new 0 0 400 400" xml:space="preserve">
<path fill="#009966" d="M331.553,221.608c-42.299,42.389-110.93,42.389-153.223,0c-42.354-42.243-42.354-110.715,0-153.152
	c42.293-42.333,110.861-42.375,153.223,0C373.795,110.894,373.795,179.428,331.553,221.608 M12.521,331.981
	c-9.225,9.288-4.131,29.118,11.057,44.38c15.373,15.233,35.232,20.31,44.324,11.106l72.51-72.454
	c6.35-6.386,5.689-17.734-0.313-29.342l31.631-31.659c53.746,41.12,130.963,37.368,180.195-11.796
	c53.551-53.668,53.551-140.527,0-194.057c-53.6-53.634-140.467-53.634-194.023,0c-49.17,49.198-53.09,126.421-11.92,180.174
	l-31.59,31.505c-11.613-6.002-23.088-6.634-29.467-0.284L12.521,331.981"/>
</svg>
